<svg fill="none" viewBox="0 0 17 17" xmlns="http://www.w3.org/2000/svg"><path d="M14.014.965H2.518A2.252 2.252 0 0 0 .266 3.217v11.496a2.252 2.252 0 0 0 2.252 2.252h11.496a2.252 2.252 0 0 0 2.252-2.252V3.217A2.252 2.252 0 0 0 14.014.965ZM5.6 13.75c0 .04-.027.1-.08.181-.08.054-.14.08-.18.08H3.49c-.04 0-.1-.026-.18-.08-.055-.08-.082-.14-.082-.18V7.254c0-.04.027-.1.08-.18.08-.054.14-.08.181-.08h1.85c.04 0 .1.026.18.08.054.08.081.14.081.18v6.494Zm-.3-7.86a1.204 1.204 0 0 1-.886.361c-.349 0-.643-.12-.885-.362a1.203 1.203 0 0 1-.362-.885c0-.335.121-.623.362-.864a1.216 1.216 0 0 1 1.77 0c.24.24.361.53.361.864 0 .35-.12.644-.36.885Zm8.161 7.86a.249.249 0 0 1-.08.181.251.251 0 0 1-.18.08h-1.89c-.04 0-.1-.026-.18-.08-.055-.08-.082-.14-.082-.18V9.79c0-.337-.06-.598-.18-.786-.149-.16-.39-.24-.725-.24-.429 0-.737.126-.925.381-.174.255-.26.617-.26 1.086v3.518a.25.25 0 0 1-.08.181.25.25 0 0 1-.183.08h-1.85c-.04 0-.1-.026-.18-.08-.054-.08-.08-.14-.08-.18V7.254c0-.04.026-.1.08-.18.08-.054.14-.08.18-.08h1.79c.054 0 .107.012.16.04.028.013.055.06.081.14v.1l.02.04v.161c.443-.428 1.053-.643 1.83-.643.871 0 1.541.208 2.01.623.483.442.724 1.08.724 1.91v4.383Z" fill="#ffffff" class="fill-000000"></path></svg>