<?xml version="1.0" encoding="UTF-8"?>
<svg width="1098px" height="315px" viewBox="0 0 1098 315" version="1.1" xmlns="http://www.w3.org/2000/svg" xmlns:xlink="http://www.w3.org/1999/xlink">
    <title>Group 2</title>
    <defs>
        <linearGradient x1="102.303863%" y1="49.1647178%" x2="-1.72807338%" y2="52.616085%" id="linearGradient-1">
            <stop stop-color="#B76E79" offset="0%"></stop>
            <stop stop-color="#CC949C" offset="32.4027535%"></stop>
            <stop stop-color="#CC959D" offset="34.6974212%"></stop>
            <stop stop-color="#E0BCBF" offset="68.5615166%"></stop>
            <stop stop-color="#C06573" offset="100%"></stop>
        </linearGradient>
        <linearGradient x1="4.8001745%" y1="50.8054075%" x2="83.3622132%" y2="49.0928928%" id="linearGradient-2">
            <stop stop-color="#B76E79" offset="0%"></stop>
            <stop stop-color="#D28792" offset="100%"></stop>
        </linearGradient>
        <linearGradient x1="40.0580006%" y1="89.3010409%" x2="57.3382386%" y2="5.73637124%" id="linearGradient-3">
            <stop stop-color="#B76E79" offset="0%"></stop>
            <stop stop-color="#D28792" offset="100%"></stop>
        </linearGradient>
        <linearGradient x1="4.8001745%" y1="65.8146538%" x2="83.3622132%" y2="32.1884116%" id="linearGradient-4">
            <stop stop-color="#B76E79" offset="0%"></stop>
            <stop stop-color="#D28792" offset="100%"></stop>
        </linearGradient>
    </defs>
    <g id="Page-1" stroke="none" stroke-width="1" fill="none" fill-rule="evenodd">
        <g id="Desktop-HD-Copy-4" transform="translate(-188.000000, -333.000000)">
            <g id="Group-2" transform="translate(188.000000, 337.000000)">
                <g id="Group">
                    <path d="M61.01,231.408 C67.202,231.408 73.136,230.949333 78.812,230.032 C84.488,229.114667 89.9633333,227.652667 95.238,225.646 C100.512667,223.639333 105.070667,220.858667 108.912,217.304 C112.753333,213.749333 115.476667,209.621333 117.082,204.92 C118.114,201.594667 118.716,198.212 118.888,194.772 C119.06,191.332 118.974,188.092667 118.63,185.054 C118.286,182.015333 117.368667,178.747333 115.878,175.25 C114.387333,171.752667 112.982667,168.656667 111.664,165.962 C110.345333,163.267333 108.338667,160.085333 105.644,156.416 C102.949333,152.746667 100.684667,149.736667 98.85,147.386 C97.0153333,145.035333 94.3206667,141.968 90.766,138.184 C87.2113333,134.4 84.4593333,131.476 82.51,129.412 C80.5606667,127.348 77.6366667,124.366667 73.738,120.468 C69.954,116.684 67.1446667,113.846 65.31,111.954 C63.4753333,110.062 60.924,107.338667 57.656,103.784 C54.388,100.229333 51.9226667,97.42 50.26,95.356 C48.5973333,93.292 46.562,90.6546667 44.154,87.444 C41.746,84.2333333 39.9973333,81.51 38.908,79.274 C37.8186667,77.038 36.672,74.4293333 35.468,71.448 C34.264,68.4666667 33.6046667,65.772 33.49,63.364 C33.3753333,60.956 33.5186667,58.4046667 33.92,55.71 C34.3213333,53.0153333 35.1526667,50.4066667 36.414,47.884 C38.478,43.756 41.5453333,40.5166667 45.616,38.166 C49.6866667,35.8153333 54.216,34.382 59.204,33.866 C64.192,33.35 68.8073333,33.2353333 73.05,33.522 C77.2926667,33.8086667 81.5926667,34.3533333 85.95,35.156 C98.9073333,37.564 111.922,41.9213333 124.994,48.228 C138.066,54.5346667 148.873333,61.5006667 157.416,69.126 C165.958667,76.7513333 170.516667,83.7173333 171.09,90.024 C171.663333,96.904 166.274,102.522667 154.922,106.88 C138.983333,111.122667 122.815333,112.04 106.418,109.632 C105.271333,109.517333 104.210667,109.832667 103.236,110.578 C102.261333,111.323333 101.688,112.298 101.516,113.502 C101.344,114.706 101.630667,115.795333 102.376,116.77 C103.121333,117.744667 104.067333,118.346667 105.214,118.576 C123.102,121.213333 140.760667,120.124 158.19,115.308 C173.784667,109.345333 181.066,100.630667 180.034,89.164 C179.346,80.908 174.157333,72.2793333 164.468,63.278 C154.778667,54.2766667 142.996667,46.508 129.122,39.972 C115.247333,33.436 101.43,28.8493333 87.67,26.212 C72.7633333,23.46 60.2073333,23.6033333 50.002,26.642 C39.7966667,29.6806667 32.5726667,35.4426667 28.33,43.928 C26.8393333,47.024 25.7786667,50.2346667 25.148,53.56 C24.5173333,56.8853333 24.2593333,59.9813333 24.374,62.848 C24.4886667,65.7146667 25.148,68.8966667 26.352,72.394 C27.556,75.8913333 28.76,78.93 29.964,81.51 C31.168,84.09 33.06,87.2146667 35.64,90.884 C38.22,94.5533333 40.4273333,97.5346667 42.262,99.828 C44.0966667,102.121333 46.7626667,105.188667 50.26,109.03 C53.7573333,112.871333 56.5093333,115.795333 58.516,117.802 C60.5226667,119.808667 63.418,122.818667 67.202,126.832 C71.33,130.845333 74.426,133.941333 76.49,136.12 C78.554,138.298667 81.392,141.337333 85.004,145.236 C88.616,149.134667 91.368,152.345333 93.26,154.868 C95.152,157.390667 97.388,160.458 99.968,164.07 C102.548,167.682 104.411333,170.921333 105.558,173.788 C106.704667,176.654667 107.794,179.750667 108.826,183.076 C109.858,186.401333 110.316667,189.640667 110.202,192.794 C110.087333,195.947333 109.514,199.072 108.482,202.168 C106.876667,207.213333 103.064,211.37 97.044,214.638 C91.024,217.906 84.2873333,220.113333 76.834,221.26 C69.3806667,222.406667 61.698,222.693333 53.786,222.12 C42.09,221.432 32.114,219.196 23.858,215.412 C15.602,211.628 11.0153333,207.213333 10.098,202.168 C9.86866667,200.906667 9.89733333,199.502 10.184,197.954 C10.4706667,196.406 11.5026667,194.284667 13.28,191.59 C15.0573333,188.895333 17.5226667,186.143333 20.676,183.334 C23.8293333,180.524667 28.588,177.170667 34.952,173.272 C41.316,169.373333 48.8553333,165.417333 57.57,161.404 C59.1753333,160.716 60.064,159.483333 60.236,157.706 C60.408,155.928667 59.7773333,154.552667 58.344,153.578 C56.9106667,152.603333 55.3913333,152.517333 53.786,153.32 C34.866,161.92 20.9913333,170.462667 12.162,178.948 C3.33266667,187.433333 -0.336666667,195.746667 1.154,203.888 C1.95666667,208.130667 4.078,211.972 7.518,215.412 C10.958,218.852 15.2006667,221.632667 20.246,223.754 C25.2913333,225.875333 30.5946667,227.566667 36.156,228.828 C41.7173333,230.089333 47.3646667,230.892 53.098,231.236 C55.6206667,231.350667 58.258,231.408 61.01,231.408 Z M154.062,230.376 C156.240667,231.178667 157.960667,230.662667 159.222,228.828 C163.35,222.750667 167.306,217.676667 171.09,213.606 C174.874,209.535333 178.170667,206.611333 180.98,204.834 C183.789333,203.056667 186.111333,201.824 187.946,201.136 C189.780667,200.448 191.443333,200.161333 192.934,200.276 C196.832667,200.62 199.756667,202.569333 201.706,206.124 C204.228667,210.710667 207.668667,214.523333 212.026,217.562 C216.383333,220.600667 221.199333,222.578667 226.474,223.496 C232.092667,224.298667 238.313333,223.84 245.136,222.12 C251.958667,220.4 257.978667,218.25 263.196,215.67 C268.413333,213.09 273.774,209.936667 279.278,206.21 C284.782,202.483333 288.508667,199.846 290.458,198.298 C292.407333,196.75 294.07,195.345333 295.446,194.084 C296.363333,193.281333 296.850667,192.249333 296.908,190.988 C296.965333,189.726667 296.592667,188.637333 295.79,187.72 C294.987333,186.802667 293.955333,186.344 292.694,186.344 C291.432667,186.229333 290.343333,186.573333 289.426,187.376 C288.279333,188.293333 286.874667,189.44 285.212,190.816 C283.549333,192.192 280.195333,194.6 275.15,198.04 C270.104667,201.48 265.231333,204.432667 260.53,206.898 C255.828667,209.363333 250.410667,211.427333 244.276,213.09 C238.141333,214.752667 232.666,215.24 227.85,214.552 C223.951333,213.978667 220.396667,212.545333 217.186,210.252 C213.975333,207.958667 211.395333,205.092 209.446,201.652 C207.840667,198.670667 205.633333,196.262667 202.824,194.428 C200.014667,192.593333 196.947333,191.561333 193.622,191.332 C185.136667,190.644 175.906,195.517333 165.93,205.952 C165.356667,206.525333 164.697333,206.64 163.952,206.296 C163.206667,205.952 162.891333,205.378667 163.006,204.576 C163.235333,203.314667 164.152667,198.441333 165.758,189.956 L166.79,188.408 C167.019333,188.064 167.134,187.892 167.134,187.892 C169.656667,184.337333 172.236667,180.668 174.874,176.884 C177.511333,173.1 180.722,168.226667 184.506,162.264 C188.29,156.301333 191.73,150.568 194.826,145.064 C197.922,139.56 200.903333,133.654667 203.77,127.348 C206.636667,121.041333 208.786667,115.308 210.22,110.148 C211.653333,104.988 212.284,100.086 212.112,95.442 C211.94,90.798 210.707333,87.1 208.414,84.348 C207.152667,82.7426667 205.604667,81.6246667 203.77,80.994 C201.935333,80.3633333 200.043333,80.3346667 198.094,80.908 C197.062,81.252 196.116,81.6533333 195.256,82.112 C194.396,82.5706667 192.905333,84.0613333 190.784,86.584 C188.662667,89.1066667 186.598667,92.346 184.592,96.302 C182.585333,100.258 180.091333,106.249333 177.11,114.276 C174.128667,122.302667 171.147333,131.762667 168.166,142.656 C164.152667,156.530667 160.655333,170.806667 157.674,185.484 L156.47,187.204 C155.208667,188.924 155.151333,190.644 156.298,192.364 C153.546,205.894667 151.826,217.017333 151.138,225.732 C150.908667,228.025333 151.883333,229.573333 154.062,230.376 Z M174.702,162.952 C172.982,165.245333 171.835333,166.22 171.262,165.876 C169.886,165.073333 171.176,158.308 175.132,145.58 C179.088,132.852 183.789333,120.324667 189.236,107.998 C194.682667,95.6713333 198.495333,89.508 200.674,89.508 C200.788667,89.508 201.018,89.68 201.362,90.024 C202.508667,91.5146667 202.91,93.9513333 202.566,97.334 C202.222,100.716667 201.304667,104.816 199.814,109.632 C198.323333,114.448 196.517333,119.464667 194.396,124.682 C192.274667,129.899333 189.981333,135.030667 187.516,140.076 C185.050667,145.121333 182.728667,149.622 180.55,153.578 C178.371333,157.534 176.422,160.658667 174.702,162.952 Z M335.434681,229.17641 L336.382,229.172 C345.555333,229.172 355.187333,227.853333 365.278,225.216 C375.368667,222.578667 383.997333,219.654667 391.164,216.444 C398.330667,213.233333 405.526,209.478 412.75,205.178 C419.974,200.878 424.847333,197.810667 427.37,195.976 C429.892667,194.141333 432.014,192.536 433.734,191.16 C434.766,190.357333 435.339333,189.325333 435.454,188.064 C435.568667,186.802667 435.224667,185.684667 434.422,184.71 C433.619333,183.735333 432.587333,183.190667 431.326,183.076 C430.179333,182.961333 429.09,183.305333 428.058,184.108 C427.255333,184.796 425.908,185.828 424.016,187.204 C422.124,188.58 418.569333,190.902 413.352,194.17 C408.134667,197.438 402.745333,200.534 397.184,203.458 C391.622667,206.382 384.943333,209.277333 377.146,212.144 C369.348667,215.010667 361.723333,217.132 354.27,218.508 C346.816667,219.884 338.79,220.314 330.19,219.798 C321.59,219.282 313.563333,217.476 306.11,214.38 C297.739333,211.054667 293.955333,206.468 294.758,200.62 C294.643333,200.046667 294.815333,199.588 295.274,199.244 C295.732667,198.9 296.248667,198.785333 296.822,198.9 C308.403333,199.588 319.067333,196.893333 328.814,190.816 C335.579333,186.344 338.675333,181.356 338.102,175.852 C337.872667,172.641333 336.64,169.946667 334.404,167.768 C332.168,165.589333 329.502,164.5 326.406,164.5 C321.819333,164.270667 316.630667,165.646667 310.84,168.628 C305.049333,171.609333 299.803333,175.737333 295.102,181.012 C290.400667,186.286667 287.419333,191.618667 286.158,197.008 C285.814,198.498667 285.613333,199.989333 285.556,201.48 C285.498667,202.970667 285.728,204.719333 286.244,206.726 C286.76,208.732667 287.591333,210.624667 288.738,212.402 C289.884667,214.179333 291.633333,216.014 293.984,217.906 C296.334667,219.798 299.23,221.432 302.67,222.808 C313.448667,227.165333 324.686,229.286667 336.382,229.172 L335.434681,229.17641 Z M302.67,191.16 C299.918,191.389333 299.287333,190.472 300.778,188.408 C304.103333,183.936 308.202667,180.266667 313.076,177.4 C317.949333,174.533333 322.220667,173.214667 325.89,173.444 C326.922,173.558667 327.667333,173.816667 328.126,174.218 C328.584667,174.619333 328.871333,175.450667 328.986,176.712 C329.215333,178.661333 327.552667,180.84 323.998,183.248 C323.195333,183.706667 322.220667,184.28 321.074,184.968 C313.620667,188.752 307.486,190.816 302.67,191.16 Z M471.574,230.376 C478.11,230.376 485.133333,229.028667 492.644,226.334 C500.154667,223.639333 506.690667,220.629333 512.252,217.304 C517.813333,213.978667 523.489333,210.08 529.28,205.608 C535.070667,201.136 538.969333,197.982667 540.976,196.148 C542.982667,194.313333 544.731333,192.708 546.222,191.332 C547.139333,190.414667 547.598,189.325333 547.598,188.064 C547.598,186.802667 547.139333,185.742 546.222,184.882 C545.304667,184.022 544.215333,183.592 542.954,183.592 C541.807333,183.592 540.775333,183.993333 539.858,184.796 C539.399333,185.254667 538.797333,185.828 538.052,186.516 C537.306667,187.204 535.787333,188.551333 533.494,190.558 C531.200667,192.564667 528.907333,194.485333 526.614,196.32 C524.320667,198.154667 521.368,200.362 517.756,202.942 C514.144,205.522 510.704,207.700667 507.436,209.478 C504.168,211.255333 500.441333,213.176 496.256,215.24 C492.070667,217.304 488.172,218.708667 484.56,219.454 C480.948,220.199333 477.049333,220.83 472.864,221.346 C468.678667,221.862 464.980667,221.432 461.77,220.056 C451.679333,216.96 444.512667,208.188 440.27,193.74 C439.123333,189.841333 439.467333,186 441.302,182.216 C443.71,177.285333 446.089333,172.24 448.44,167.08 C450.790667,161.92 453.571333,155.613333 456.782,148.16 C459.992667,140.706667 462.658667,133.597333 464.78,126.832 C466.901333,120.066667 468.736,113.416 470.284,106.88 C471.832,100.344 472.462667,94.5533333 472.176,89.508 C471.889333,84.4626667 470.542,80.6786667 468.134,78.156 C466.528667,76.092 464.407333,74.716 461.77,74.028 C459.132667,73.34 456.61,73.512 454.202,74.544 C448.583333,76.952 443.538,83.488 439.066,94.152 C434.594,104.816 431.326,117.028 429.262,130.788 C427.198,144.548 426.51,157.62 427.198,170.004 C427.542,175.737333 428.23,181.413333 429.262,187.032 C429.262,187.605333 429.376667,188.178667 429.606,188.752 C431.899333,199.530667 435.54,208.331333 440.528,215.154 C445.516,221.976667 451.736667,226.477333 459.19,228.656 C463.203333,229.802667 467.331333,230.376 471.574,230.376 Z M439.754,168.456 C439.295333,169.144 438.722,169.344667 438.034,169.058 C437.346,168.771333 436.944667,168.226667 436.83,167.424 C435.11,158.48 435.425333,147.357333 437.776,134.056 C440.126667,120.754667 443.308667,109.202 447.322,99.398 C451.335333,89.594 454.775333,84.0613333 457.642,82.8 C457.986,82.6853333 458.33,82.628 458.674,82.628 C459.591333,82.628 460.566,83.2013333 461.598,84.348 C463.662,86.5266667 463.461333,93.5786667 460.996,105.504 C458.530667,117.429333 455.148,129.67 450.848,142.226 C446.548,154.782 442.85,163.525333 439.754,168.456 Z M584.922,230.376 C591.458,230.376 598.481333,229.028667 605.992,226.334 C613.502667,223.639333 620.038667,220.629333 625.6,217.304 C631.161333,213.978667 636.837333,210.08 642.628,205.608 C648.418667,201.136 652.317333,197.982667 654.324,196.148 C656.330667,194.313333 658.079333,192.708 659.57,191.332 C660.487333,190.414667 660.946,189.325333 660.946,188.064 C660.946,186.802667 660.487333,185.742 659.57,184.882 C658.652667,184.022 657.563333,183.592 656.302,183.592 C655.155333,183.592 654.123333,183.993333 653.206,184.796 C652.747333,185.254667 652.145333,185.828 651.4,186.516 C650.654667,187.204 649.135333,188.551333 646.842,190.558 C644.548667,192.564667 642.255333,194.485333 639.962,196.32 C637.668667,198.154667 634.716,200.362 631.104,202.942 C627.492,205.522 624.052,207.700667 620.784,209.478 C617.516,211.255333 613.789333,213.176 609.604,215.24 C605.418667,217.304 601.52,218.708667 597.908,219.454 C594.296,220.199333 590.397333,220.83 586.212,221.346 C582.026667,221.862 578.328667,221.432 575.118,220.056 C565.027333,216.96 557.860667,208.188 553.618,193.74 C552.471333,189.841333 552.815333,186 554.65,182.216 C557.058,177.285333 559.437333,172.24 561.788,167.08 C564.138667,161.92 566.919333,155.613333 570.13,148.16 C573.340667,140.706667 576.006667,133.597333 578.128,126.832 C580.249333,120.066667 582.084,113.416 583.632,106.88 C585.18,100.344 585.810667,94.5533333 585.524,89.508 C585.237333,84.4626667 583.89,80.6786667 581.482,78.156 C579.876667,76.092 577.755333,74.716 575.118,74.028 C572.480667,73.34 569.958,73.512 567.55,74.544 C561.931333,76.952 556.886,83.488 552.414,94.152 C547.942,104.816 544.674,117.028 542.61,130.788 C540.546,144.548 539.858,157.62 540.546,170.004 C540.89,175.737333 541.578,181.413333 542.61,187.032 C542.61,187.605333 542.724667,188.178667 542.954,188.752 C545.247333,199.530667 548.888,208.331333 553.876,215.154 C558.864,221.976667 565.084667,226.477333 572.538,228.656 C576.551333,229.802667 580.679333,230.376 584.922,230.376 Z M553.102,168.456 C552.643333,169.144 552.07,169.344667 551.382,169.058 C550.694,168.771333 550.292667,168.226667 550.178,167.424 C548.458,158.48 548.773333,147.357333 551.124,134.056 C553.474667,120.754667 556.656667,109.202 560.67,99.398 C564.683333,89.594 568.123333,84.0613333 570.99,82.8 C571.334,82.6853333 571.678,82.628 572.022,82.628 C572.939333,82.628 573.914,83.2013333 574.946,84.348 C577.01,86.5266667 576.809333,93.5786667 574.344,105.504 C571.878667,117.429333 568.496,129.67 564.196,142.226 C559.896,154.782 556.198,163.525333 553.102,168.456 Z M653.378,168.972 C654.180667,168.972 654.926,168.742667 655.614,168.284 C659.627333,166.22 663.239333,163.525333 666.45,160.2 C667.367333,159.282667 667.797333,158.222 667.74,157.018 C667.682667,155.814 667.195333,154.782 666.278,153.922 C665.360667,153.062 664.3,152.632 663.096,152.632 C661.892,152.632 660.831333,153.090667 659.914,154.008 C657.391333,156.645333 654.524667,158.766667 651.314,160.372 C649.25,161.518667 648.504667,163.238667 649.078,165.532 C649.651333,167.825333 651.084667,168.972 653.378,168.972 Z M685.929484,229.347071 L686.574,229.344 C693.454,229.344 700.792667,227.968 708.59,225.216 C716.387333,222.464 723.152667,219.339333 728.886,215.842 C734.619333,212.344667 740.381333,208.331333 746.172,203.802 C751.962667,199.272667 755.947333,196.004667 758.126,193.998 C760.304667,191.991333 762.082,190.3 763.458,188.924 C764.260667,188.006667 764.662,186.917333 764.662,185.656 C764.662,184.394667 764.203333,183.334 763.286,182.474 C762.368667,181.614 761.279333,181.184 760.018,181.184 C758.871333,181.184 757.839333,181.642667 756.922,182.56 C756.348667,183.133333 755.202,184.251333 753.482,185.914 C751.762,187.576667 748.809333,190.128 744.624,193.568 C740.438667,197.008 736.081333,200.276 731.552,203.372 C727.022667,206.468 721.748,209.478 715.728,212.402 C709.708,215.326 703.86,217.476 698.184,218.852 C692.508,220.228 686.574,220.486 680.382,219.626 C674.19,218.766 668.571333,216.501333 663.526,212.832 C661.462,211.341333 660.057333,209.248667 659.312,206.554 C658.566667,203.859333 658.308667,201.308 658.538,198.9 C658.767333,196.492 659.312,193.912 660.172,191.16 C661.032,188.408 661.72,186.487333 662.236,185.398 C662.752,184.308667 663.124667,183.477333 663.354,182.904 C663.927333,181.872 664.013333,180.782667 663.612,179.636 C663.210667,178.489333 662.465333,177.629333 661.376,177.056 C660.286667,176.482667 659.168667,176.368 658.022,176.712 C656.875333,177.056 655.958,177.744 655.27,178.776 C654.811333,179.693333 654.266667,180.897333 653.636,182.388 C653.005333,183.878667 652.174,186.458667 651.142,190.128 C650.11,193.797333 649.536667,197.237333 649.422,200.448 C649.307333,203.658667 649.938,207.156 651.314,210.94 C652.69,214.724 654.983333,217.762667 658.194,220.056 C666.564667,226.362667 676.024667,229.458667 686.574,229.344 L685.929484,229.347071 Z M750.988,226.248 C753.109333,227.28 754.915333,226.936 756.406,225.216 C773.147333,205.608 786.104667,195.689333 795.278,195.46 C796.080667,195.345333 796.854667,195.46 797.6,195.804 C798.345333,196.148 799.033333,196.664 799.664,197.352 C800.294667,198.04 800.810667,198.642 801.212,199.158 C801.613333,199.674 802.072,200.333333 802.588,201.136 C803.104,201.938667 803.362,202.397333 803.362,202.512 C808.292667,211.226667 815.23,217.82 824.174,222.292 C829.334,224.356 834.809333,225.445333 840.6,225.56 C846.390667,225.674667 851.751333,225.015333 856.682,223.582 C861.612667,222.148667 866.629333,220.142 871.732,217.562 C876.834667,214.982 881.163333,212.430667 884.718,209.908 C888.272667,207.385333 891.77,204.690667 895.21,201.824 C898.65,198.957333 901.000667,196.893333 902.262,195.632 C903.523333,194.370667 904.498,193.338667 905.186,192.536 C906.103333,191.618667 906.533333,190.529333 906.476,189.268 C906.418667,188.006667 905.931333,186.974667 905.014,186.172 C904.096667,185.369333 904,185 902,185 C900,185 895.949333,190.28 894,192 C892.050667,193.72 882.682667,200.276 879.644,202.34 C876.605333,204.404 873.566667,206.296 870.528,208.016 C867.489333,209.736 864.135333,211.312667 860.466,212.746 C856.796667,214.179333 853.213333,215.211333 849.716,215.842 C846.218667,216.472667 842.520667,216.673333 838.622,216.444 C834.723333,216.214667 830.996667,215.354667 827.442,213.864 C820.332667,210.08 814.828667,204.633333 810.93,197.524 C809.439333,195.116 807.719333,192.88 805.77,190.816 C803.247333,188.064 800.151333,186.573333 796.482,186.344 C787.767333,185.770667 777.046,191.504 764.318,203.544 C763.859333,204.002667 763.343333,204.088667 762.77,203.802 C762.196667,203.515333 761.967333,203.085333 762.082,202.512 L766.038,185.484 C766.267333,184.337333 766.066667,183.219333 765.436,182.13 C764.805333,181.040667 763.888,180.352667 762.684,180.066 C761.48,179.779333 760.333333,179.98 759.244,180.668 C758.154667,181.356 757.495333,182.273333 757.266,183.42 L748.666,221.26 C748.092667,223.553333 748.866667,225.216 750.988,226.248 Z" id="Shellin" fill="url(#linearGradient-1)" fill-rule="nonzero"></path>
                    <path d="M919,77 C925,66.3333333 931.333333,61 938,61 C952,61 957,76 974,76 C985.333333,76 996.333333,72.3333333 1007,65 C1017.66667,57.6666667 1025.66667,60.3333333 1031,73" id="Path-2" stroke="url(#linearGradient-2)" stroke-width="8" stroke-linecap="round" stroke-linejoin="round"></path>
                    <path d="M971,21 C966.333333,12.3333333 967.666667,6 975,2 C986,-4 994.526316,4.93267807 996.263158,10.966339 C998,17 996.263158,21.966339 987.263158,28.966339 C981.263158,33.6330057 977.263158,39.6330057 975.263158,46.966339 C973.929825,52.966339 974.596491,57.6330057 977.263158,60.966339" id="Path-3" stroke="url(#linearGradient-3)" stroke-width="8" stroke-linecap="round" stroke-linejoin="round"></path>
                    <path d="M941,116 L959,141 C969,154.333333 979,154.333333 989,141 C999,127.666667 1012,112.333333 1028,95 C1017.33333,120.333333 1018,139 1030,151 C1042,163 1050.66667,171.333333 1056,176 L1093,203 C1073,195.666667 1057,189 1045,183 C1033,177 1024.33333,175.666667 1019,179 C1011.66667,185 1006.66667,189.666667 1004,193 C1001.33333,196.333333 995,203.666667 985,215 C977.666667,223 967.666667,224.333333 955,219 C944.756986,214.687152 937.114219,208.766312 930,206 C923.917892,203.635017 918.069834,203.773742 913,207 C905.666667,211.666667 899.333333,214.333333 894,215 C887.333333,215.666667 886,212.666667 890,206 C894,199.333333 903.333333,188 918,172 C936,154 941.333333,137 934,121 C926.666667,105 922.666667,95.3333333 922,92 C925.697618,96.4892141 928.697618,100.155881 931,103 C933.302382,105.844119 936.635716,110.177453 941,116 Z" id="Path-4" stroke="url(#linearGradient-4)" stroke-width="8" stroke-linejoin="round"></path>
                </g>
                <text id="ONLINE-CLOTHING-STOR" font-family="Gibson-Regular, Gibson" font-size="22" font-weight="normal" letter-spacing="24" fill="#FFFFFF">
                    <tspan x="164.05" y="307">ONLINE CLOTHING STORE</tspan>
                </text>
            </g>
        </g>
    </g>
</svg>