<!doctype html>
<svg viewBox="0 0 741.129 524.33" width="741.129" height="524.33">
  <path d="M 488.284 344.57 C 487.602 344.469 486.923 344.37 486.242 344.275 C 486.614 351.245 485.116 358.245 487.14 366.741 C 487.781 364.262 488.246 363.298 488.251 362.337 C 488.328 356.41 488.284 350.486 488.284 344.57 Z" fill="#44546B"></path>
  <path d="M 477.628 92.897 C 478.626 89.512 478.355 86.064 476.941 82.312 C 476.318 85.645 475.644 88.975 475.121 92.328 C 475.052 92.779 475.698 93.716 476.114 93.796 C 476.578 93.883 477.492 93.357 477.628 92.897 Z" fill="#44546B"></path>
  <path d="M 1.671 138.671 C 0.104 139.218 0.122 140.612 0.042 141.927 C -0.039 143.236 0.022 144.559 0.022 145.874 C 0.461 145.961 0.905 146.057 1.347 146.142 C 1.773 144.923 2.248 143.715 2.608 142.469 C 3.305 140.04 2.843 138.257 1.671 138.671 Z" fill="#44546B"></path>
  <path d="M 9.918 190.804 C 9.93 190.782 9.938 190.76 9.951 190.735 C 9.92 190.735 9.89 190.741 9.856 190.741 L 9.918 190.804 Z" fill="#44546B"></path>
  <path d="M 79.95 25.356 C 81.06 25.356 81.145 24.26 81.168 23.326 C 80.976 22.28 80.619 21.335 79.444 21.913 C 78.975 22.14 78.489 22.872 78.438 23.417 C 78.344 24.455 78.977 25.353 79.95 25.356 Z" fill="#44546B"></path>
  <path d="M 365.43 17.923 C 366.64 18.473 367.927 18.558 369.075 17.652 C 369.198 17.556 369.129 17.17 369.144 16.907 C 368.034 15.91 366.768 16.017 365.524 16.452 C 364.567 16.792 364.511 17.504 365.43 17.923 Z" fill="#44546B"></path>
  <path d="M 470.436 40.693 C 470.564 41.238 471.061 41.682 471.391 42.167 C 471.666 41.622 472.088 41.107 472.2 40.521 C 472.369 39.592 472.335 38.614 472.394 37.65 C 473.76 35.136 474.676 32.477 474.671 29.522 C 475.248 29.33 475.846 29.176 476.41 28.93 C 477.771 28.336 478.2 27.04 477.62 25.821 C 477.339 25.216 476.081 24.915 475.253 24.893 C 473.911 24.849 473.071 25.827 472.601 27.15 L 472.437 27.309 C 471.618 27.703 470.918 28.273 470.321 28.99 C 467.104 33.035 467.104 33.035 470.122 37.834 C 470.211 38.784 470.206 39.773 470.436 40.693 Z" fill="#44546B"></path>
  <path d="M 484.636 412.104 C 484.582 412.342 484.753 412.728 484.935 412.922 C 485.026 413.016 485.379 412.829 485.609 412.764 C 485.662 412.457 485.861 412.051 485.744 411.843 C 485.31 411.071 484.858 411.172 484.636 412.104 Z" fill="#44546B"></path>
  <path d="M 388.907 17.799 C 389.124 17.86 389.418 17.611 389.678 17.504 C 389.625 17.257 389.64 16.896 389.502 16.792 C 389.285 16.633 388.874 16.512 388.688 16.633 C 387.993 17.093 388.075 17.575 388.907 17.799 Z" fill="#44546B"></path>
  <path d="M 420.21 20.073 C 420.731 19.952 421.224 19.659 421.729 19.437 C 421.53 19.204 421.331 18.969 421.145 18.75 C 420.585 18.999 420.082 19.226 419.585 19.456 C 419.794 19.673 420.049 20.111 420.21 20.073 Z" fill="#44546B"></path>
  <path d="M 474.722 113.742 C 474.554 114.594 474.865 115.046 475.481 114.868 C 475.649 114.818 475.71 114.342 475.82 114.063 C 475.667 113.805 475.522 113.548 475.368 113.282 C 475.146 113.435 474.766 113.553 474.722 113.742 Z" fill="#44546B"></path>
  <path d="M 9.918 190.806 L 9.856 190.741 C 9.815 190.79 9.775 190.836 9.734 190.886 C 9.8 190.861 9.854 190.831 9.918 190.806 Z" fill="#44546B"></path>
  <path d="M 9.032 191.685 C 9.269 191.42 9.499 191.151 9.734 190.883 C 9.54 190.94 9.338 190.99 9.187 191.113 C 9.07 191.209 9.08 191.488 9.032 191.685 Z" fill="#44546B"></path>
  <path d="M 478.394 365.298 C 478.634 365.906 479.226 366.9 479.063 367.072 C 476.282 370.011 478.759 374.719 475.876 377.639 C 474.043 379.498 474.036 382.021 474.322 384.527 L 474.322 384.535 C 474.301 384.554 474.278 384.573 474.253 384.592 C 476.221 389.295 476.114 389.722 472.471 390.949 C 470.985 391.448 469.313 391.371 468.47 393.14 L 468.462 393.146 C 468.327 396.607 467.648 400.165 468.797 403.482 C 469.741 406.207 473.574 407.365 472.575 411.495 C 470.745 411.118 468.904 410.737 467.066 410.345 C 466.055 412.9 466.134 415.543 466.415 418.219 C 472.606 421.152 472.828 421.662 470.387 427.246 C 470.405 427.915 470.257 428.531 469.948 429.111 C 469.795 431.798 467.816 434.203 469.333 437.207 C 471.064 440.631 468.991 443.161 466.897 445.473 C 466.463 445.952 465.674 446.04 465.195 446.481 C 458.523 452.679 457.061 454.377 449.128 445.867 C 448.467 445.155 447.474 444.805 446.629 444.282 C 446.953 446.245 446.448 447.738 444.53 448.412 C 440.925 453.191 436.996 457.715 434.66 463.445 C 434.89 466.553 434.28 468.84 430.969 469.854 C 427.149 471.031 426.557 470.799 426.422 466.195 C 426.394 465.154 426.646 464.094 426.769 463.042 C 423.123 460.468 421.259 460.317 418.893 462.834 C 417.831 463.968 417.18 465.554 416.347 466.934 L 416.352 466.934 C 415.719 471.157 415.589 471.327 413.062 470.755 C 411.583 470.429 410.126 469.993 408.66 469.61 C 407.458 471.075 406.26 472.543 405.063 474.014 C 405.3 477.298 402.393 477.566 400.879 479.198 C 399.434 480.749 398.377 481.488 395.954 481.181 C 393.26 480.847 390.283 482.334 387.552 483.386 C 384.715 484.473 381.828 485.511 378.894 484.944 C 371.682 483.553 364.447 484.323 357.224 484.167 C 356.037 484.865 354.648 485.525 353.479 484.764 C 349.611 482.241 345.281 482.455 341.041 481.844 C 326.011 479.678 310.8 480.195 295.788 478.363 C 287.856 477.388 280.146 477.955 272.287 478.106 C 255.769 478.432 239.231 478.034 222.71 477.607 C 216.8 477.457 210.821 475.241 204.995 476.802 C 199.48 478.286 193.976 477.142 188.454 477.922 C 181.977 478.848 175.285 478.04 168.688 477.996 L 168.688 477.991 C 158.578 479.229 148.437 478.963 138.294 478.782 C 133.053 478.684 127.796 478.903 122.573 478.549 C 110.132 477.692 97.704 476.61 85.281 475.539 C 84.372 475.457 83.509 474.734 82.628 474.307 C 82.625 474.307 82.625 474.307 82.623 474.307 C 78.206 475.205 73.713 472.072 69.299 474.679 C 67.963 475.465 67.052 474.438 66.059 473.414 C 64.683 471.993 63.008 470.914 61.458 469.681 L 61.456 469.681 C 60.159 469.629 58.854 469.574 57.552 469.522 C 56.95 469.788 56.342 470.056 55.737 470.322 C 54.159 473.066 51.626 471.138 49.617 471.757 C 48.767 473.987 46.61 474.269 44.981 475.331 C 44.062 475.931 43.112 475.734 42.39 474.866 C 39.196 470.988 35.481 467.405 35.504 461.596 C 32.974 459.222 33.589 455.338 31.761 452.627 C 29.499 454.352 29.637 456.806 30.186 459.235 C 30.715 461.583 32.07 463.735 31.621 466.293 C 31.516 466.907 31.202 467.772 30.771 467.958 C 30.309 468.161 29.446 467.898 29.012 467.507 C 25.874 464.699 24.115 461.09 23.885 456.677 C 24.255 452.334 21.289 448.546 22.093 444.134 C 21.342 439.16 19.203 434.425 19.872 429.207 C 17.704 416.546 16.382 403.791 15.973 390.927 C 15.976 390.927 15.976 390.933 15.979 390.933 C 15.976 390.933 15.976 390.927 15.976 390.927 C 12.284 364.651 10.209 338.225 9.356 311.672 C 8.664 290.068 10.025 268.511 10.579 246.941 C 10.622 245.223 11.337 243.531 11.735 241.825 C 11.294 234.873 11.283 228.007 12.568 221.056 C 13.489 216.052 12.805 210.778 11.779 205.697 C 7.546 197.708 8.713 195.024 17.385 192.74 C 17.881 192.151 17.955 191.507 17.605 190.812 C 15.072 188.648 12.504 190.719 9.953 190.727 C 10.556 189.368 11.166 188.007 11.771 186.643 C 11.263 186.476 10.755 186.32 10.242 186.172 L 10.239 186.172 C 10.221 186.164 10.204 186.159 10.186 186.15 C 9.29 185.712 8.289 185.586 7.421 185.066 C 5.932 183.883 5.968 182.322 6.52 180.67 C 7.033 179.125 7.599 177.605 8.146 176.072 C 8.187 174.828 8.751 174.037 9.895 173.755 C 9.236 172.328 8.572 170.903 7.908 169.471 C 7.321 167.458 6.734 165.44 6.149 163.421 C 6.152 163.421 6.152 163.421 6.154 163.421 C 7.602 159.472 8.151 155.689 6.698 151.354 C 5.442 147.591 4.648 143.22 7.896 139.679 C 8.138 139.238 8.235 138.753 8.194 138.243 C 8.194 138.241 8.194 138.241 8.194 138.241 C 8.215 136.953 8.792 136.014 9.79 135.338 C 9.79 135.335 9.793 135.329 9.795 135.327 C 9.821 134.65 9.844 133.965 9.877 133.286 C 9.877 133.286 9.877 133.286 9.879 133.286 C 10.188 131.974 11.051 130.457 10.709 129.381 C 9.619 125.963 11.161 124.15 13.558 122.594 C 13.558 122.594 13.558 122.594 13.561 122.597 C 13.561 122.594 13.558 122.591 13.558 122.591 C 13.658 120.474 13.765 118.357 13.867 116.243 C 13.665 115.533 13.75 114.865 14.122 114.238 C 14.125 114.23 14.125 114.221 14.13 114.213 C 14.125 114.219 14.122 114.23 14.12 114.235 C 13.893 110.738 13.653 107.24 13.425 103.74 L 13.425 103.743 C 12.246 104.365 11.069 104.992 9.892 105.616 C 7.028 107.369 6.402 104.77 6.456 103.003 C 6.527 100.349 7.434 97.726 7.985 95.091 C 7.985 95.091 7.988 95.091 7.988 95.088 L 7.985 95.088 C 8.631 94.346 9.277 93.601 9.925 92.853 C 9.925 92.856 9.925 92.856 9.925 92.856 C 9.93 92.133 9.941 91.407 9.951 90.682 L 9.948 90.682 C 6.303 86.538 7.645 82.057 10.022 78.288 C 11.802 75.462 12.741 73.09 11.909 69.743 C 10.913 65.75 13.798 62.431 13.997 58.594 C 13.88 58.002 13.877 57.411 13.985 56.819 L 13.985 56.816 C 14.71 51.708 18.018 48.696 21.654 45.952 C 21.654 45.949 21.654 45.949 21.654 45.946 C 22.325 41.027 25.149 38.316 29.507 37.196 C 29.64 37.39 29.775 37.593 29.91 37.79 C 29.913 37.784 29.915 37.782 29.918 37.776 C 29.918 37.776 29.918 37.776 29.921 37.776 L 29.507 37.196 C 30.365 35.654 31.818 35.317 33.298 35.04 C 33.298 35.04 33.298 35.04 33.301 35.04 L 33.298 35.037 C 38.412 33.074 43.467 31.08 46.625 25.786 C 47.312 24.641 48.833 24.143 50.161 24.54 C 52.926 25.364 56.107 24.63 58.438 27.133 C 59.827 28.629 61.06 28.484 62.441 26.794 C 65.4 23.176 65.443 23.192 70.483 21.36 C 72.625 24.137 71.247 28.278 73.539 31 C 74.203 30.899 74.831 30.998 75.431 31.326 C 76.983 30.738 78.515 29.71 80.09 29.642 C 90.144 29.185 99.072 24.405 108.414 21.272 C 113.326 19.624 118.141 20.431 123.025 20.555 C 127.931 17.92 133.28 18.188 138.491 18.197 C 143.227 18.202 147.955 18.071 152.675 17.852 C 154.641 15.151 156.73 12.809 158.744 10.679 C 163.232 5.93 167.8 3.141 173.687 1.52 C 180.353 -0.318 190.141 -0.687 197.167 1.52 C 203.966 3.654 210.798 9.052 215.312 14.113 C 216.264 15.181 217.119 15.997 217.9 16.764 C 218.416 16.745 218.932 16.734 219.45 16.731 C 226.92 16.707 234.446 15.803 241.82 17.868 C 242.075 17.906 242.346 17.972 242.624 18.073 C 243.755 18.199 244.891 18.323 246.017 18.449 C 246.019 18.449 246.019 18.451 246.022 18.451 L 246.019 18.449 C 250.745 20.16 255.575 21.061 260.462 19.489 C 264.483 18.199 268.19 20.349 272.139 20.289 C 284.951 20.081 297.767 20.388 310.583 20.464 C 320.422 20.527 330.264 20.514 340.104 20.596 C 342.024 20.609 344.112 20.374 345.414 22.505 C 348.301 22.847 351.47 22.507 354.023 23.682 C 360.819 26.827 367.86 26.906 374.991 26.879 C 383.153 26.473 391.338 26.564 399.441 25.055 C 401.958 24.583 404.746 24.244 406.835 26.709 C 407.442 26.854 408.058 26.996 408.665 27.131 C 411.177 26.646 413.766 26.495 415.584 24.033 C 416.021 23.455 417.586 23.072 418.015 23.433 C 418.589 23.915 418.729 25.213 418.752 26.175 C 418.778 27.183 418.443 28.204 418.262 29.223 L 418.254 29.223 C 419.812 30.932 421.553 31.447 423.608 30.297 C 426.529 28.662 429.447 27.005 432.386 25.413 C 434.229 24.416 435.49 25.413 436.516 27.002 C 436.521 27.002 436.521 27.002 436.521 27.005 C 436.521 27.002 436.521 27.002 436.521 27.002 C 441.51 28.612 446.088 27.369 450.658 25.03 C 453.433 23.611 456.591 23.195 458.181 27.007 C 459.443 30.023 463.619 27.361 464.283 31.033 C 464.224 36.812 465.598 42.775 462.353 48.132 C 462.414 53.864 463.264 59.676 460.893 65.167 C 460.54 64.967 460.196 64.767 459.843 64.573 C 459.831 64.857 459.818 65.142 459.813 65.427 C 460.196 65.454 460.558 65.367 460.893 65.172 C 460.78 66.539 460.671 67.911 460.558 69.283 C 462.999 70.549 461.743 73.775 463.732 75.818 C 464.117 72.666 464.411 69.798 464.88 66.961 C 464.944 66.577 465.914 66.125 466.453 66.136 C 466.959 66.15 467.727 66.618 467.903 67.095 C 468.807 69.459 468.912 72.181 467.944 74.279 C 466.096 78.278 466.522 82.501 465.996 86.625 C 465.026 89.901 464.38 93.133 465.432 96.608 C 466.721 100.881 466.652 105.326 466.183 109.757 C 466.2 112.611 466.213 115.459 466.231 118.308 C 466.231 118.31 466.231 118.31 466.231 118.31 C 467.645 121.044 468.812 123.846 468.174 127.107 C 468.115 131.952 468.056 136.792 467.998 141.637 C 467.998 141.639 468.005 141.639 468.005 141.639 C 468.041 145.901 468.087 150.163 468.123 154.427 C 468.123 154.427 468.123 154.427 468.123 154.43 C 467.5 157.355 466.872 160.282 466.251 163.202 C 468.565 166.072 468.363 169.058 466.604 172.117 C 466.834 172.717 466.749 173.259 466.356 173.757 C 468.059 177.238 466.79 179.983 464.48 182.467 C 466.001 186.761 466.716 191.187 466.604 195.799 C 466.351 206.248 468.113 216.562 468.511 226.969 C 470.482 228.799 470.387 231.332 470.413 233.753 C 470.454 238.645 470.431 243.544 470.318 248.436 C 470.158 255.456 470.114 255.456 472.2 261.144 C 472.2 261.149 472.2 261.158 472.195 261.158 C 472.2 261.158 472.2 261.149 472.208 261.144 C 472.213 263.927 472.226 266.709 472.243 269.492 C 472.195 271.015 472.157 272.532 472.108 274.055 C 472.108 274.055 472.108 274.049 472.113 274.049 C 473.311 275.807 474.089 277.462 472.226 279.412 C 470.655 281.052 470.158 282.175 473.027 283.616 C 475.547 284.884 475.276 287.886 472.325 289.54 C 469.731 291.008 470.969 292.867 470.717 294.626 C 470.704 294.645 470.694 294.659 470.673 294.67 C 470.694 294.659 470.704 294.645 470.717 294.631 C 471.636 294.327 472.537 293.831 473.461 293.774 C 475.131 293.667 476.211 295.242 475.213 296.242 C 472.243 299.213 470.865 302.155 474.281 305.753 C 476.372 306.394 476.305 308.177 476.224 309.971 C 476.229 311.398 476.234 312.836 476.241 314.271 C 476.711 317.643 476.793 321.006 477.643 324.418 C 478.695 328.636 479.022 333.262 477.998 337.737 C 478.93 342.667 478.825 347.583 478.026 352.513 C 478.151 356.783 478.279 361.041 478.394 365.298 Z M 474.186 384.412 C 474.186 384.42 474.186 384.42 474.191 384.42 L 474.26 384.486 L 474.186 384.412 Z" fill="#44546B"></path>
  <path d="M 293.388 196.189 L 293.388 231.328 L 326.367 231.328 L 326.367 253.16 L 293.388 253.16 L 293.388 288.821 C 293.388 296.881 293.801 302.053 294.664 304.342 C 295.521 306.619 297.09 308.449 299.426 309.818 C 302.512 311.666 306.014 312.593 309.983 312.593 C 317.023 312.593 324.013 310.296 330.979 305.729 L 330.979 327.653 C 325.044 330.456 319.658 332.422 314.843 333.544 C 310.029 334.675 304.809 335.234 299.223 335.234 C 292.866 335.234 287.259 334.434 282.372 332.827 C 277.475 331.219 273.31 328.931 269.856 325.963 C 266.419 322.996 264.021 319.835 262.689 316.481 C 261.365 313.145 260.703 308.293 260.703 301.935 L 260.703 253.159 L 245.323 253.159 L 245.323 233.477 C 250.791 231.713 255.476 229.159 259.355 225.852 C 263.259 222.543 266.383 218.556 268.736 213.907 C 271.097 209.265 272.715 203.366 273.606 196.189 L 293.388 196.189 Z" fill="#EDF0F3"></path>
  <path fill="rgb(255,0,0)" stroke="rgb(255,0,0)" stroke-width="0" opacity="0.9686274509803922" d="M 402.101 97.707 C 402.86 98.011 403.682 98.426 404.544 98.923 C 404.764 98.713 404.984 98.506 405.201 98.298 C 406.888 96.683 408.748 95.546 411.054 94.954 C 413.664 94.283 417.499 94.148 420.251 94.954 C 422.913 95.733 424.836 95.598 427.358 99.552 C 427.697 100.084 428.05 100.714 428.415 101.432 C 436.384 103.973 446.298 107.94 449.933 112.094 C 453.805 116.519 453.916 123.939 453.278 127.98 C 452.786 131.094 451.275 133.375 448.679 135.087 C 447.822 135.652 446.8 136.188 445.651 136.664 C 435.744 134.073 415.269 131.817 405.201 128.398 C 396.638 125.491 390.62 119.77 385.134 118.365 C 381.157 117.346 377.874 117.66 375.1 118.365 C 372.734 118.967 370.935 120.094 369.247 121.709 C 367.399 123.478 365.121 125.753 364.649 128.816 C 364.049 132.711 364.508 139.559 367.993 143.867 C 372.409 149.325 382.677 153.113 392.659 156.826 C 404.818 161.35 427.294 166.366 436.973 167.696 C 442.59 168.468 445.592 168.468 448.679 167.696 C 448.717 167.687 448.754 167.677 448.792 167.667 C 448.479 167.829 448.144 167.988 447.789 168.142 C 450.961 183.09 453.679 199.305 452.441 206.576 C 451.755 210.613 450.439 211.971 447.843 213.683 C 445.588 215.17 441.204 216.467 437.412 216.947 C 434.112 234.686 423.024 270.633 415.234 278.9 C 410.519 283.903 404.078 282.844 400.184 282.245 C 397.12 281.773 394.846 279.495 393.077 277.646 C 392.794 277.351 392.528 277.064 392.278 276.778 C 392.586 275.259 392.854 273.864 393.077 272.629 C 394.608 264.158 394.124 257.022 393.077 252.562 C 392.632 250.668 392.025 249.465 391.203 248.383 C 392.149 245.015 393.387 241.056 394.802 236.826 C 391.721 238.004 387.624 238.848 384.58 238.883 C 385.116 240.309 385.561 241.948 385.89 243.608 C 384.844 242.966 383.733 242.435 382.625 242.111 C 379.873 241.305 376.039 241.44 373.428 242.111 C 371.122 242.703 369.706 242.29 367.575 245.455 C 365.123 249.098 361.028 259.749 357.278 271.334 C 355.076 265.084 352.186 257.724 349.038 249.956 C 346.744 245.981 343.498 238.556 340.974 230.335 C 334.703 215.133 328.778 200.562 326.187 191.525 C 323.019 180.474 324.182 176.01 322.347 167.858 C 327.371 171.553 332.518 175.214 335.803 178.566 C 341.458 184.336 344.805 190.612 348.763 194.87 C 351.92 198.267 354.874 199.997 357.542 202.813 C 360.16 205.577 361.873 209.089 364.649 211.592 C 367.442 214.112 370.668 217.187 374.264 217.863 C 378.019 218.569 383.63 217.378 386.806 215.355 C 389.773 213.465 392.191 209.762 393.077 206.576 C 393.938 203.477 393.512 199.905 392.241 196.542 C 390.774 192.664 385.748 186.693 383.88 184.836 C 382.961 183.924 382.887 184.602 381.789 183.582 C 378.98 180.973 372.546 171.133 365.485 163.933 C 356.533 154.806 340.051 138.454 330.786 133.415 C 328.944 132.413 327.156 131.669 325.456 131.133 C 324.73 132.354 323.778 133.359 322.425 134.251 C 319.125 136.427 310.861 138.104 307.375 137.596 C 304.98 137.247 303.751 133.973 302.358 134.251 C 300.964 134.53 299.86 138.21 299.013 139.268 C 298.495 139.917 298.474 139.964 297.759 140.522 C 296.425 141.565 294.076 144.056 290.652 145.121 C 285.654 146.676 273.911 147.895 268.913 146.793 C 265.489 146.038 263.575 144.043 261.806 142.194 C 260.191 140.507 259.147 139.288 258.462 136.342 C 257.383 131.709 256.999 121.451 258.394 114.912 C 254.27 114.873 250.903 114.668 248.846 114.184 C 244.383 113.135 243.451 112.182 241.739 109.586 C 240.583 107.833 239.542 104.795 238.911 101.747 C 225.01 94.027 210.539 84.374 205.786 78.649 C 201.221 73.15 201.842 67.493 202.441 63.599 C 202.913 60.535 205.191 58.261 207.04 56.492 C 208.728 54.877 210.471 53.758 212.893 53.148 C 215.825 52.408 219.883 51.978 223.763 53.148 C 228.532 54.585 236.991 60.696 239.231 62.763 C 240.233 63.687 239.189 63.767 240.485 64.853 C 243.789 67.623 262.904 75.404 274.083 82.373 C 282.959 82.172 292.665 82.204 300.996 82.555 C 312.12 74.367 353.794 54.683 365.312 51.475 C 370.686 49.978 372.419 50.627 375.345 51.475 C 378.079 52.268 380.74 53.478 382.452 56.074 C 383.837 58.173 385.056 62.118 385.606 65.714 C 386.33 66.296 387.09 67.18 388.06 68.616 C 390.98 72.937 395.754 84.248 400.508 97.169 C 401.032 97.314 401.564 97.492 402.101 97.707 Z M 400.602 310.255 C 401.365 315.31 401.491 318.029 400.602 321.124 C 399.797 323.925 398.599 326.519 396.003 328.231 C 392.704 330.407 384.847 332.175 380.953 331.576 C 379.982 331.426 379.13 331.162 378.351 330.792 C 378.677 329.707 378.932 328.708 379.108 327.813 C 379.537 325.631 379.613 323.577 379.448 321.674 C 379.567 320.167 379.582 318.542 379.508 316.99 C 384.922 307.861 389.588 289.726 392.038 277.947 C 396.448 291.583 399.463 302.713 400.602 310.255 Z M 350.435 95.372 C 350.535 95.524 350.635 95.685 350.733 95.856 C 350.862 95.465 351.018 95.085 351.197 94.717 C 350.894 94.863 350.592 95.01 350.289 95.157 C 350.338 95.227 350.387 95.299 350.435 95.372 Z M 323.679 277.228 C 325.916 279.228 327.394 278.202 328.696 280.154 C 330.619 283.039 332.64 291.31 332.04 295.204 C 331.734 297.193 330.666 298.849 329.449 300.25 C 333.76 302.373 337.749 304.363 339.565 306.074 C 341.934 308.306 342.247 309.149 342.91 311.927 C 343.64 314.988 343.937 320.925 343.54 325.519 C 341.409 329.238 339.205 333.263 337.13 337.26 C 333.394 339.104 326.685 340.428 323.261 339.937 C 320.335 339.517 319.153 336.481 316.572 335.756 C 313.778 334.972 309.767 333.408 306.957 335.756 C 304.699 337.643 303.405 343.753 302.005 350.004 C 301.815 352.929 301.519 355.426 301.104 357.077 C 300.332 360.15 299.527 361.738 297.938 363.116 C 297.5 363.879 297.025 364.524 296.505 365.02 C 292.515 368.827 285.349 368.964 281.455 368.365 C 278.391 367.893 276.061 365.46 274.348 363.766 C 273.649 363.075 273.342 362.288 273.015 361.507 C 272.507 360.913 272.082 360.29 271.715 359.422 C 271.624 359.336 271.526 359.251 271.421 359.168 C 269.06 357.297 262.943 357.494 260.134 354.569 C 256.989 351.296 256.123 346.995 254.281 339.519 C 251.186 326.955 247.581 300.015 245.92 280.99 C 244.323 262.706 242.378 236.413 244.247 227.479 C 245.117 223.325 247.553 224.337 248.428 220.79 C 249.907 214.796 246.863 197.635 248.428 191.525 C 249.381 187.805 251.178 186.187 253.027 184.418 C 254.714 182.804 256.574 181.666 258.88 181.074 C 261.49 180.404 265.325 180.269 268.077 181.074 C 270.739 181.853 274.222 184.583 275.184 185.673 C 275.642 186.191 275.007 186.72 275.602 186.927 C 277.115 187.453 285.393 183.782 288.98 184.418 C 291.946 184.944 294.318 187.168 296.087 189.017 C 297.702 190.705 298.734 191.835 299.431 194.87 C 300.595 199.934 300.841 213.736 299.431 219.117 C 298.506 222.65 296.125 224.901 294.833 226.224 C 294.499 226.566 294.073 226.71 293.693 226.818 C 294.108 228.072 294.528 229.332 294.95 230.59 C 296.053 231.736 297.329 232.921 298.177 233.75 C 299.734 235.272 301.244 235.752 302.776 237.512 C 304.729 239.756 307.23 242.068 308.629 246.709 C 309.694 250.244 309.968 256.382 310.137 262.662 C 315.165 269.203 320.604 274.478 323.679 277.228 Z" style="fill: rgb(68, 84, 107); fill-opacity: 1; fill-rule: nonzero; stroke: none; stroke-dasharray: none; stroke-dashoffset: 0px; stroke-linecap: butt; stroke-linejoin: miter; stroke-miterlimit: 4; stroke-opacity: 1; stroke-width: 1px; paint-order: normal; vector-effect: none; opacity: 1; mix-blend-mode: normal; isolation: auto;"></path>
  <path fill="rgb(255,0,0)" stroke="rgb(255,0,0)" stroke-width="0" opacity="0.9764705882352941" d="M 319.08 121.709 C 322.167 120.938 325.047 120.601 330.786 121.709 C 341.255 123.732 373.109 131.596 380.535 138.85 C 385.08 143.289 384.479 150.006 383.88 153.9 C 383.408 156.964 381.923 159.295 379.281 161.007 C 375.853 163.228 370.273 164.703 363.395 164.352 C 353.375 163.84 332.107 156.929 323.261 153.482 C 317.72 151.323 314.422 150.547 311.973 147.211 C 309.344 143.63 308.029 136.055 308.629 132.161 C 309.1 129.097 311.379 126.823 313.227 125.054 C 314.915 123.439 316.605 122.328 319.08 121.709 Z M 291.488 206.994 C 294.099 206.323 297.933 206.188 300.686 206.994 C 303.348 207.773 305.588 209.06 307.793 211.592 C 310.733 214.97 310.577 222.351 315.736 227.061 C 322.95 233.647 346.156 237.235 352.107 244.201 C 356.33 249.144 356.127 256.739 355.452 260.923 C 354.941 264.086 353.498 265.816 350.853 268.03 C 347.164 271.119 339.886 274.815 333.294 276.392 C 326.093 278.115 317.135 279.491 309.047 277.228 C 299.997 274.696 286.598 266.383 281.873 260.087 C 278.35 255.394 277.929 248.931 278.528 245.037 C 279 241.973 281.835 239.254 283.127 237.93 C 283.913 237.126 285.078 237.54 285.217 236.676 C 285.457 235.196 281.755 231.404 281.037 228.315 C 280.274 225.033 280.147 220.541 281.037 217.445 C 281.842 214.644 283.787 212.107 285.635 210.338 C 287.323 208.723 289.183 207.586 291.488 206.994 Z" style="fill: rgb(237, 240, 243); fill-opacity: 1; fill-rule: nonzero; stroke: none; stroke-dasharray: none; stroke-dashoffset: 0px; stroke-linecap: butt; stroke-linejoin: miter; stroke-miterlimit: 4; stroke-opacity: 1; stroke-width: 1px; paint-order: normal; vector-effect: none; opacity: 1; mix-blend-mode: normal; isolation: auto;"></path>
  <path fill="rgb(255,0,0)" stroke="rgb(255,0,0)" stroke-width="0" opacity="0.984313725490196" d="M 280.619 185.255 C 283.23 184.584 287.064 184.449 289.816 185.255 C 292.478 186.034 295.173 187.859 296.923 189.853 C 298.621 191.788 298.089 195.102 300.268 196.96 C 303.024 199.311 310.788 198.506 313.645 201.559 C 316.515 204.625 314.491 213.509 317.408 215.355 C 320.268 217.165 327.085 212.123 330.786 212.847 C 334.008 213.476 336.504 215.491 338.729 218.281 C 341.451 221.694 342.469 229.863 345 232.913 C 346.854 235.148 349.845 235.398 351.271 236.676 C 352.344 237.638 352.601 238.889 353.361 239.602 C 354.012 240.213 354.484 239.861 355.452 240.857 C 357.662 243.133 364.502 251.744 366.321 256.743 C 367.814 260.844 367.957 265.187 367.157 268.449 C 366.455 271.311 364.929 273.576 362.559 275.556 C 359.719 277.926 352.342 279.47 350.435 280.99 C 349.467 281.762 350.239 282.437 349.181 283.081 C 346.966 284.427 338.025 287.025 334.13 286.425 C 331.067 285.953 327.986 282.916 327.023 281.826 C 326.566 281.308 327.197 280.725 326.605 280.572 C 325.066 280.174 315.728 282.529 312.809 284.753 C 310.541 286.481 311.395 289.809 309.047 291.442 C 305.942 293.6 297.891 295.386 293.997 294.786 C 290.933 294.315 289.011 292.916 286.89 290.188 C 283.883 286.32 282.731 275.229 279.365 271.375 C 276.798 268.437 272.287 268.73 270.167 266.776 C 268.377 265.126 267.495 263.772 266.823 260.923 C 265.8 256.59 266.063 247.031 266.823 241.693 C 267.439 237.366 269.486 235.938 270.167 230.823 C 271.236 222.794 268.438 202.61 270.167 195.706 C 271.146 191.798 272.917 190.368 274.766 188.599 C 276.454 186.984 278.313 185.847 280.619 185.255 Z" style="fill: rgb(68, 84, 107); fill-opacity: 1; fill-rule: nonzero; stroke: none; stroke-dasharray: none; stroke-dashoffset: 0px; stroke-linecap: butt; stroke-linejoin: miter; stroke-miterlimit: 4; stroke-opacity: 1; stroke-width: 1px; paint-order: normal; vector-effect: none; opacity: 1; mix-blend-mode: normal; isolation: auto;"></path>
  <text style="fill: rgb(51, 51, 51); font-family: Arial, sans-serif; font-size: 209px; font-weight: 700; white-space: pre;" x="40.757" y="384.15" transform="matrix(1.13471, -0.036015, 0.042981, 1.354206, -36.019245, -102.401405)"> </text>
  <text style="white-space: pre; fill: rgb(237, 240, 243); font-size: 12.5px;" x="611.204" y="244.519">SR

</text>
  <text style="white-space: pre; fill: rgb(237, 240, 243); font-size: 12.5px;" x="571.906" y="259.569">SR

</text>
  <text style="fill: rgb(237, 240, 243); font-size: 187px; white-space: pre;" x="20.38" y="441.139" transform="matrix(1.160193, 0, 0, 1.936882, -3.260153, -407.198151)">SR



</text>
  <text style="white-space: pre; fill: rgb(237, 240, 243); font-size: 12.5px;" x="276.756" y="267.93"><tspan x="276.7560119628906" dy="1em">​</tspan></text>
  <text style="white-space: pre; fill: rgb(237, 240, 243); font-size: 12.5px;" x="709.866" y="196.395">SR



</text>
  <path fill="rgb(255,0,0)" stroke="rgb(255,0,0)" stroke-width="0" opacity="0.9764705882352941" d="M 345.245 123.255 C 348.248 124.253 351.696 125.739 355.14 127.516 C 355.922 127.693 356.722 127.863 357.542 128.027 C 368.91 130.307 391.596 126.126 399.348 128.027 C 403.44 129.03 404.686 130.777 406.455 132.625 C 408.07 134.313 409.181 136.003 409.799 138.478 C 410.571 141.565 410.728 146.924 409.799 150.184 C 408.983 153.048 407.295 155.256 405.201 157.291 C 402.933 159.494 397.951 161.279 396.421 162.726 C 395.563 163.538 396.357 164.096 395.167 164.816 C 392.191 166.619 380.485 169.63 371.756 170.669 C 361.809 171.853 344.993 172.353 338.311 170.669 C 334.454 169.697 333.239 168.165 331.204 166.07 C 329.648 164.468 329.286 162.544 328.002 160.284 C 323.662 159.056 319.244 157 316.99 154.365 C 316.174 153.411 315.515 152.197 314.998 150.854 C 313.578 149.831 312.36 148.578 311.382 147.084 C 311.068 146.604 310.763 146.061 310.472 145.472 C 304.254 141.091 297.748 136.516 293.579 132.625 C 286.735 126.239 281.222 119.754 277.692 114.231 C 274.967 109.966 273.485 106.405 272.676 102.525 C 271.916 98.883 271.786 94.751 272.676 91.656 C 273.48 88.855 275.426 86.317 277.274 84.548 C 278.962 82.934 280.387 81.862 283.127 81.204 C 287.068 80.258 294.522 79.911 299.85 81.204 C 305.26 82.518 310.248 84.505 315.318 89.147 C 322.017 95.281 327.299 111.465 334.967 117.993 C 336.839 119.588 338.713 120.932 340.642 122.081 C 342.243 122.387 343.795 122.773 345.245 123.255 Z M 388.478 194.08 C 391.089 193.41 394.923 193.275 397.676 194.08 C 400.338 194.859 403.014 196.83 404.783 198.679 C 406.398 200.367 407.402 201.271 408.127 204.532 C 409.475 210.595 409.764 229.848 408.127 236.304 C 407.163 240.108 406.124 241.699 403.528 243.411 C 400.229 245.587 392.372 247.355 388.478 246.756 C 385.414 246.284 383.14 244.006 381.371 242.157 C 379.756 240.469 378.752 239.565 378.027 236.304 C 376.679 230.242 376.39 210.988 378.027 204.532 C 378.991 200.728 380.777 199.194 382.625 197.425 C 384.313 195.81 386.173 194.672 388.478 194.08 Z" style="fill: rgb(68, 84, 107); fill-opacity: 1; fill-rule: nonzero; stroke: none; stroke-dasharray: none; stroke-dashoffset: 0px; stroke-linecap: butt; stroke-linejoin: miter; stroke-miterlimit: 4; stroke-opacity: 1; stroke-width: 1px; paint-order: normal; vector-effect: none; opacity: 1; mix-blend-mode: normal; isolation: auto;"></path>
  <path fill="rgb(255,0,0)" stroke="rgb(255,0,0)" stroke-width="0" opacity="0.9333333333333333" d="M 211.662 175.198 C 212.701 175.282 215.129 176.174 217.437 177.287 C 218.288 176.653 219.169 176.154 220.023 176.034 C 221.654 175.805 223.557 177.631 225.04 177.706 C 226.29 177.77 227.245 176.596 228.385 176.87 C 229.743 177.198 230.813 179.84 232.565 180.215 C 234.593 180.648 238.19 178.188 240.09 178.543 C 241.578 178.82 241.959 180.862 243.435 181.051 C 245.341 181.295 247.814 178.748 250.96 178.543 C 255.133 178.269 263.393 181.04 266.846 181.051 C 268.877 181.057 269.628 179.514 271.027 180.215 C 271.713 180.559 272.63 181.395 273.55 182.469 C 276.895 184.049 282.399 188.307 283.987 189.83 C 284.919 190.725 284.662 190.991 285.241 191.92 C 286.122 193.334 287.142 196.017 289.003 197.773 C 291.213 199.859 295.44 199.165 298.201 203.208 C 303.038 210.292 307.746 232.217 309.906 245.014 C 311.794 256.195 312.911 269.357 311.579 275.951 C 310.849 279.564 308.905 282.027 307.475 283.43 C 308.137 284.015 308.689 284.634 309.07 285.148 C 309.976 286.371 310.203 287.805 309.906 289.329 C 309.538 291.219 307.068 294.373 306.144 295.599 C 305.619 296.296 305.477 296.123 304.89 296.854 C 303.734 298.291 300.577 303.063 299.455 304.797 C 298.807 305.798 298.957 305.808 298.201 306.887 C 296.666 309.076 291.607 316.35 289.421 318.175 C 288.223 319.175 287.53 318.469 286.495 319.429 C 284.837 320.966 283.324 327.412 281.06 328.208 C 280.32 328.468 279.363 328.386 278.375 328.088 C 276.897 328.47 275.1 328.65 273.482 328.879 C 275.728 334.573 277.733 342.601 279.388 344.931 C 280.498 346.492 281.52 345.964 282.314 347.021 C 283.278 348.303 283.327 351.188 284.405 352.456 C 285.36 353.579 287.109 353.176 288.167 354.546 C 289.684 356.509 291.834 361.868 291.512 364.579 C 291.312 366.256 290.074 367.904 288.892 369.045 C 292.861 370.328 299.208 373.113 301.545 375.449 C 303.918 377.821 304.275 380.44 304.89 383.81 C 305.644 387.948 303.61 392.262 304.89 398.86 C 306.738 408.388 318.443 429.638 319.811 438.943 C 320.028 439.813 320.07 440.701 319.94 441.502 C 319.918 441.638 319.889 441.776 319.853 441.915 C 319.403 445.531 317.322 447.959 315.341 448.609 C 314.733 448.809 314.014 448.864 313.233 448.772 C 311.531 449.615 309.603 450.24 307.816 450.282 C 304.742 450.354 300.531 447.108 297.973 446.943 C 297.382 447.62 296.724 448.177 296.11 448.609 C 294.392 449.819 290.952 449.599 289.421 449.446 C 288.434 449.347 288.128 449.535 287.331 448.609 C 285.494 446.475 282.45 434.996 280.224 431.887 C 278.921 430.067 277.89 431.309 276.462 428.961 C 273.016 423.295 262.557 395.325 263.084 387.991 C 263.158 386.952 263.4 386.046 263.751 385.267 C 262.899 380.345 262.186 375.125 260.993 373.359 C 259.823 371.627 258.295 372.369 257.231 371.268 C 256.002 369.996 255.498 367.261 254.304 365.834 C 253.228 364.546 251.907 364.769 250.542 362.907 C 248.901 360.671 245.72 354.976 243.789 350.231 C 243.509 349.984 243.249 349.746 243.017 349.529 C 241.754 348.347 240.989 346.264 240.09 345.767 C 239.499 345.439 239.128 345.917 238.418 345.767 C 237.362 345.542 235.955 344.131 234.237 344.094 C 232 344.046 227.997 346.931 225.876 346.603 C 225.045 346.474 224.357 346.094 223.751 345.571 C 220.539 344.749 216.459 342.836 213.489 341.989 C 213.82 349 213.53 356.557 212.916 359.563 C 212.887 359.708 212.856 359.847 212.824 359.982 C 213.254 362.532 213.29 365.486 212.916 367.924 C 212.645 369.69 212.045 371.95 211.254 374.137 C 211.251 374.287 211.248 374.446 211.244 374.613 C 211.171 377.998 210.416 387.926 208.923 394.734 C 210.278 403.831 210.163 422.146 209.607 427.787 C 210.103 429.694 209.89 432.29 209.572 433.977 C 209.464 434.55 209.306 435.139 209.104 435.715 C 209.278 435.831 209.435 435.949 209.572 436.068 C 210.884 437.215 211.634 438.723 211.244 440.666 C 210.635 443.705 205.705 450.608 202.465 452.79 C 199.878 454.533 196.219 454.903 194.104 454.462 C 192.428 454.113 191.346 452.935 190.341 451.536 C 190.252 451.412 190.161 451.281 190.07 451.144 C 189.713 451.146 189.382 451.138 189.087 451.118 C 187.191 450.991 185.76 451.075 184.488 449.446 C 182.47 446.859 180.202 437.727 180.277 433.006 C 178.766 426.312 178.839 408.984 180.308 402.205 C 180.337 402.071 180.367 401.938 180.397 401.806 C 179.126 394.242 179.15 382.195 180.308 377.957 C 180.418 377.553 180.545 377.176 180.686 376.823 C 179.625 368.606 179.43 354.828 180.224 349.989 C 177.608 342.167 177.492 322.169 178.635 316.084 C 178.73 315.578 178.849 315.111 178.986 314.679 C 177.432 300.853 177.059 273.84 178.568 265.434 C 177.078 261.157 175.749 253.851 176.027 250.048 C 174.914 245.451 175.232 237.808 176.127 234.145 C 176.485 232.68 177.03 231.218 177.71 229.997 C 176.514 222.993 176.911 209.456 177.799 204.88 C 177.804 204.856 177.808 204.832 177.813 204.808 C 177.388 202.605 177.39 199.902 177.799 197.355 C 178.506 192.955 181.578 185.124 183.652 182.723 C 184.864 181.32 186.029 180.971 187.415 181.051 C 188.62 181.121 190.368 181.845 191.676 182.842 C 192.698 183.281 193.791 183.656 194.94 183.559 C 198.775 183.237 206.636 180.181 208.736 178.543 C 209.819 177.697 209.444 176.596 209.99 176.034 C 210.455 175.557 210.74 175.124 211.662 175.198 Z M 189.623 248.672 C 191.397 253.26 192.613 261.587 192.013 265.081 C 191.996 265.177 191.978 265.273 191.958 265.367 C 193.942 278.628 193.383 306.49 192.11 315.448 C 194.256 323.867 194.892 343.333 193.727 349.327 C 195.58 356.457 194.933 372.843 193.686 377.957 C 194.687 382.633 195.033 396.612 193.686 402.205 C 193.667 402.286 193.647 402.366 193.627 402.447 C 194.929 411.539 194.613 426.666 193.686 432.305 C 193.682 432.329 193.678 432.353 193.674 432.377 C 193.876 433.828 194.044 435.319 194.251 436.628 C 195.084 436.496 195.914 436.378 196.612 436.068 C 196.753 436.006 196.888 435.935 197.018 435.859 C 196.328 433.294 195.891 429.744 196.194 428.124 C 196.266 427.742 196.394 427.403 196.556 427.099 C 195.266 417.843 194.955 401.115 196.194 395.516 C 195.042 390.833 194.708 379.454 196.194 374.613 C 196.536 373.499 197.064 372.487 197.674 371.587 C 197.665 370.333 197.734 369.08 197.866 367.924 C 198.1 365.88 198.911 363.145 199.867 360.567 C 198.348 354.679 198.379 340.218 199.538 334.479 C 200.386 330.284 202.032 326.521 204.137 325.7 C 204.951 325.383 206.072 325.365 207.216 325.666 C 207.302 325.674 207.391 325.686 207.482 325.7 C 208.777 325.905 211.102 327.659 212.08 328.626 C 212.79 329.327 212.659 330.457 213.334 330.716 C 214.11 331.015 215.418 329.92 216.679 329.88 C 218.152 329.833 219.954 330.822 221.696 330.716 C 222.146 330.689 222.623 330.533 223.112 330.322 C 223.539 329.78 223.922 329.335 224.204 329.044 C 224.849 328.377 224.94 328.252 225.876 328.208 C 227.732 328.121 233.405 331.01 235.91 330.716 C 237.764 330.499 238.287 328.255 240.09 328.208 C 242.54 328.145 247.185 329.92 249.706 332.389 C 251.252 333.903 252.903 336.383 254.056 338.894 C 254.87 339.523 255.655 340.304 256.395 341.168 C 258.469 343.591 260.168 349.593 261.829 351.619 C 262.863 352.88 263.865 352.673 264.756 353.71 C 265.862 354.997 266.414 357.604 267.682 359.145 C 268.931 360.662 271.401 361.524 272.281 362.907 C 273.021 364.07 272.482 365.83 273.117 366.67 C 273.677 367.409 275.011 366.685 275.625 367.924 C 276.88 370.453 277.108 381.639 276.593 386.895 C 279.205 390.75 281.815 396.974 283.151 401.369 C 284.63 406.235 282.911 410.124 284.823 415.583 C 286.619 420.711 292.997 428.532 296.856 434.734 C 297.375 435.014 297.946 435.233 298.619 435.232 C 299.333 435.231 300.18 434.953 301.102 434.559 C 297.796 426.48 294.699 416.13 293.184 409.73 C 291.349 401.976 293.53 395.721 291.512 389.663 C 289.549 383.77 281.751 377.344 281.478 373.777 C 281.373 372.407 282.204 371.28 283.059 370.418 C 281.428 369.719 279.471 368.365 278.134 367.088 C 276.377 365.41 275.375 362.237 273.953 360.817 C 272.855 359.721 271.702 360.077 270.609 358.727 C 268.883 356.594 266.904 349.249 265.592 347.439 C 264.948 346.549 264.52 347.207 263.92 346.185 C 262.982 344.589 260.903 339.395 259.723 334.787 C 258.311 334.352 257.209 333.256 256.395 331.971 C 255.356 330.331 254.473 327.594 254.722 325.282 C 254.997 322.734 256.884 318.685 258.485 317.339 C 259.684 316.33 261.287 316.374 262.666 316.502 C 264.075 316.634 265.072 318.321 266.846 318.175 C 268.388 318.048 270.675 316.232 272.879 314.821 C 273.777 312.649 275.382 310.436 276.043 308.977 C 276.628 307.687 276.635 307.122 277.298 306.051 C 278.148 304.676 279.637 302.719 281.06 301.452 C 282.435 300.228 284.27 300.087 285.659 298.526 C 287.423 296.544 287.807 292.412 290.258 289.747 C 292.492 287.316 296.723 283.803 300.096 282.214 C 300.019 282.084 299.944 281.947 299.873 281.803 C 297.319 276.643 298.803 258.261 296.528 246.686 C 294.229 234.986 289.811 217.886 286.077 211.987 C 284.06 208.8 281.238 208.803 279.806 207.389 C 278.754 206.349 278.91 205.712 277.716 204.462 C 276.313 202.995 272.897 200.764 270.209 198.568 C 269.004 198.952 267.739 198.984 266.846 198.609 C 265.521 198.053 265.591 195.049 263.92 194.429 C 261.683 193.599 255.384 195.921 253.468 196.101 C 252.552 196.187 252.554 196.031 251.796 196.101 C 250.613 196.21 248.209 197.273 246.779 196.937 C 245.457 196.627 244.855 194.59 243.435 194.429 C 241.675 194.229 238.898 196.839 236.746 196.937 C 234.727 197.029 232.207 195.473 230.893 195.265 C 230.109 195.141 230.17 195.464 229.221 195.265 C 227.5 194.905 221.777 192.993 218.406 191.634 C 216.544 193.161 214.364 194.644 212.498 195.265 C 209.552 196.246 205.294 195.796 203.301 195.265 C 202.025 194.925 201.901 193.412 200.793 193.593 C 198.998 193.885 195.729 199.287 193.268 200.282 C 192.842 200.454 192.404 200.603 191.962 200.721 C 191.56 201.886 191.134 203.039 190.699 204.125 C 192.36 211.759 192.198 227.362 191.177 231.636 C 190.862 232.956 190.383 233.729 189.815 234.283 C 190.629 238.696 190.368 245.119 189.623 248.672 Z M 205.809 209.479 C 208.286 208.161 212.381 211.529 213.753 213.242 C 214.855 214.618 214.824 215.844 214.589 218.258 C 214.181 222.441 209.694 231.108 208.736 237.489 C 207.828 243.534 209.862 251.716 208.8 255.664 C 209.917 261.955 209.508 273.446 208.841 277.837 C 209.777 281.307 210.388 285.834 210.548 289.517 C 211.346 290.755 210.53 292.857 211.244 293.927 C 211.946 294.979 213.773 294.749 214.589 296.017 C 215.214 296.988 215.834 298.729 216.162 300.506 C 218.235 300.427 220.253 300.395 221.278 299.78 C 222.639 298.963 222.448 297.275 223.368 296.436 C 224.269 295.614 225.233 294.743 226.712 294.763 C 228.866 294.793 233.806 296.789 235.492 298.526 C 236.822 299.897 237.321 301.855 237.164 303.543 C 236.997 305.337 235.734 307.382 234.237 308.977 C 232.539 310.788 228.465 312.533 227.13 313.576 C 226.416 314.134 226.666 314.454 225.876 314.83 C 224.396 315.535 220.371 316.881 217.515 316.502 C 214.392 316.088 209.689 313.691 207.9 311.904 C 207.253 311.258 206.768 310.579 206.481 309.866 C 205.8 309.513 205.144 309.073 204.555 308.559 C 202.636 306.885 200.057 302.935 198.47 299.336 C 198.249 299.096 198.046 298.827 197.866 298.526 C 195.75 294.994 194.494 283.38 195.358 278.459 C 194.009 274.029 194.155 260.816 195.358 255.884 C 195.394 255.736 195.432 255.591 195.472 255.448 C 194.202 250.461 194.155 241.582 195.358 234.981 C 196.874 226.663 201.898 211.561 205.809 209.479 Z M 268.518 292.5 C 270.452 292.51 272.84 294.629 273.953 295.426 C 274.629 295.91 274.687 296.341 275.207 296.68 C 275.78 297.054 277.148 296.709 277.298 297.517 C 277.592 299.102 275.127 305.775 271.863 308.386 C 268.022 311.46 258.277 313.865 254.304 313.403 C 251.659 313.095 250.196 311.26 248.87 309.64 C 247.563 308.044 246.267 305.763 246.361 303.787 C 246.46 301.724 247.748 298.973 249.706 297.517 C 252.016 295.798 258.251 294.911 260.157 295.008 C 261.104 295.057 261.008 295.901 261.829 295.844 C 263.259 295.746 266.431 292.489 268.518 292.5 Z M 137.395 259.793 C 138.148 259.776 139.182 259.961 140.232 260.269 C 140.778 259.821 141.52 259.742 141.993 259.375 C 142.503 258.981 142.561 258.626 143.247 258.121 C 143.809 257.708 144.757 256.948 145.794 256.256 C 144.734 250.31 144.302 241.568 144.747 239.553 C 144.787 239.374 144.829 239.224 144.877 239.097 C 144.745 236.013 145.317 231.565 146.203 228.762 C 146.118 228.478 146.023 228.21 145.913 227.973 C 144.012 227.665 141.803 226.941 141.157 225.931 C 140.879 225.496 140.777 224.835 140.792 224.073 C 140.002 224.374 139.154 224.428 138.476 224.085 C 136.248 222.957 132.238 213.755 130.935 209.442 C 129.706 208.334 127.65 207.995 126.107 206.7 C 124.233 205.126 122.761 202.544 120.672 200.429 C 119.282 199.022 116.901 197.529 115.097 196.085 C 114.654 196.184 114.261 196.24 113.983 196.248 C 113.236 196.27 113.129 195.515 112.311 195.412 C 111.015 195.249 107.755 196.411 106.458 196.248 C 105.64 196.145 105.529 195.49 104.786 195.412 C 103.752 195.303 102.066 196.348 100.605 196.248 C 99.013 196.14 96.762 194.543 95.589 194.576 C 94.814 194.598 94.648 195.494 93.916 195.412 C 92.794 195.286 89.882 193.869 89.318 192.486 C 89.055 191.841 89.091 190.883 89.304 189.924 C 87.62 190.482 85.578 191.43 83.883 191.232 C 82.497 191.07 80.597 190.463 78.99 189.703 C 78.749 189.961 78.507 190.194 78.275 190.395 C 76.661 191.79 73.01 192.896 71.586 192.904 C 70.753 192.908 70.514 192.088 69.914 192.068 C 69.267 192.046 68.385 192.475 67.823 192.904 C 67.278 193.32 67.404 194.049 66.569 194.576 C 65.716 195.115 63.657 195.865 61.726 196.405 C 61.632 196.536 61.537 196.664 61.442 196.787 C 60.082 201.822 57.149 208.666 55.747 210.462 C 54.762 211.725 54.026 210.173 52.821 211.716 C 50.816 214.284 47.046 226.245 43.489 236.594 C 43.79 242.473 43.593 248.604 42.495 250.643 C 42.172 251.242 41.692 251.766 41.138 252.186 C 41.12 255.19 39.104 260.434 39.151 262.72 C 39.186 264.473 39.465 265.632 39.987 266.482 C 40.395 267.148 41.251 267.008 41.659 267.737 C 41.708 267.825 41.759 267.925 41.81 268.035 C 42.057 268.188 42.287 268.366 42.495 268.573 C 44.263 270.334 46.86 276.514 47.511 280.276 C 47.511 280.277 47.512 280.277 47.512 280.278 C 49.108 282.884 50.961 292.349 51.728 299.825 C 52.313 299.748 52.984 299.776 53.783 299.927 C 57.212 300.577 67.031 306.369 69.251 307.87 C 70.142 308.473 69.951 309.008 70.505 309.124 C 71.155 309.261 72.257 307.966 73.013 308.288 C 73.956 308.691 74.66 311.977 75.46 312.439 C 75.599 312.439 75.738 312.441 75.875 312.445 C 76.274 312.251 76.636 311.582 77.194 311.633 C 77.727 311.682 78.453 312.271 79.212 312.868 C 80.361 313.092 81.6 313.398 82.866 313.766 C 83.37 313.514 83.922 313.246 84.719 313.305 C 87.281 313.496 93.946 314.971 96.007 317.068 C 96.554 317.624 96.994 318.383 97.315 319.203 C 97.897 319.616 98.336 320.032 98.515 320.412 C 98.971 321.379 98.525 322.746 97.689 323.734 C 97.686 323.741 97.682 323.749 97.679 323.757 C 97.395 324.387 96.708 324.946 95.877 325.331 C 95.668 327.09 95.399 328.653 96.007 329.191 C 96.969 330.043 98.539 328.116 100.605 328.355 C 103.871 328.733 112.258 330.968 114.401 333.372 C 114.412 333.385 114.424 333.397 114.435 333.41 C 114.563 333.39 114.692 333.377 114.819 333.372 C 115.694 333.336 116.652 333.18 117.746 334.208 C 119.924 336.255 122.432 346.356 125.689 349.258 C 128.241 351.533 133.011 350.676 134.468 352.185 C 134.953 352.687 135.283 353.381 135.447 354.086 C 137.884 358.307 139.279 377.522 137.902 382.025 C 138.595 386.497 138.815 393.652 138.157 396.981 C 138.476 398.574 137.987 401.217 136.977 403.188 C 135.376 406.313 129.516 411.355 127.361 412.803 C 126.242 413.556 125.752 413.265 124.853 413.64 C 123.821 414.07 122.933 415.091 121.508 415.312 C 120.893 415.407 119.999 415.482 119.048 415.493 C 119.57 417.035 119.896 419.522 119.418 420.747 C 118.873 422.142 117.434 423.399 115.656 423.673 C 114.041 423.921 110.587 423.348 108.052 422.429 C 105.826 423.186 101.885 423.081 99.769 422.837 C 97.867 422.617 96.151 420.939 95.171 421.165 C 94.473 421.325 94.645 422.429 93.916 422.837 C 92.877 423.419 90.241 423.756 88.9 423.673 C 87.867 423.609 87.37 422.885 86.391 422.837 C 85.207 422.778 83.97 423.797 82.211 423.673 C 81.364 423.613 80.104 423.452 78.767 423.198 C 78.368 424.261 77.811 425.139 77.194 425.345 C 75.534 425.899 70.551 422.27 69.251 420.747 C 68.415 419.767 69.211 418.868 68.415 417.82 C 67.17 416.184 62.563 414.878 60.89 412.385 C 59.957 410.995 59.216 408.862 58.776 406.837 C 58.327 406.692 57.963 406.424 57.545 406.114 C 56.788 405.554 56.307 404.628 55.455 403.606 C 54.331 402.258 52.581 399.821 51.274 398.589 C 50.245 397.619 49.089 397.591 48.348 396.499 C 47.981 395.959 47.708 395.203 47.486 394.375 C 47.185 394.285 46.909 394.067 46.676 393.573 C 46.266 392.703 45.948 390.35 45.721 387.294 C 45.681 387.054 45.662 386.83 45.674 386.628 C 45.091 378.071 45.169 364.74 45.839 362.218 C 46.136 361.104 46.394 361.118 47.094 360.964 C 48.2 360.721 51.368 360.191 52.528 362.218 C 54.196 365.132 53.992 378.322 53.052 386.765 C 54.098 388.649 54.68 392.526 56.291 394.409 C 58.092 396.516 61.953 397.105 63.398 399.007 C 63.835 399.582 64.247 400.299 64.573 401.046 C 66.088 402.932 67.188 407.612 68.833 409.459 C 70.222 411.02 72.379 411.184 73.431 412.385 C 74.047 413.088 74.186 414.019 74.463 414.882 C 76.333 413.856 79.986 413.716 82.211 413.64 C 84.373 413.566 86.203 414.493 88.064 414.476 C 89.816 414.459 91.819 413.532 93.08 413.64 C 93.991 413.717 94.413 414.107 95.171 414.476 C 96.061 414.909 96.822 416.009 98.097 416.148 C 99.795 416.333 102.627 414.268 104.786 414.476 C 105.44 414.539 106.22 414.705 107.007 414.944 C 108.591 414.097 111.706 413.737 114.062 413.639 C 113.819 412.31 114.432 410.268 115.656 408.623 C 118.06 405.389 128.887 400.331 131.124 398.171 C 130.242 395.851 130.444 387.424 131.121 382.278 C 129.667 379.054 128.447 364.76 128.414 357.575 C 126.81 356.627 125.108 355.236 124.017 355.111 C 122.928 354.987 122.357 356.088 121.508 355.947 C 120.549 355.788 119.617 355.345 118.582 353.857 C 117.216 351.894 114.708 345.808 113.179 341.208 C 111.212 342.194 108.493 342.856 107.294 342.569 C 105.959 342.25 106.42 340.258 104.786 339.225 C 101.981 337.451 92.088 337.364 89.318 334.626 C 87.319 332.65 88.237 328.383 87.498 326.371 C 87.249 326.234 87.032 326.056 86.809 325.847 C 86.6 325.651 86.501 325.365 86.419 325.048 C 85.842 324.686 85.153 324.614 83.883 324.175 C 82.224 323.602 78.373 322.962 74.44 322.247 C 73.937 322.404 73.467 322.525 73.013 322.502 C 72.035 322.454 71.775 322.09 70.505 321.666 C 70.106 321.533 69.574 321.363 68.956 321.167 C 66.698 320.662 64.823 320.126 63.887 319.556 C 61.954 318.928 60.152 318.314 59.217 317.904 C 58.07 317.4 57.997 316.693 57.127 316.65 C 56.016 316.594 54.269 318.46 52.946 318.322 C 51.621 318.184 49.593 316.94 49.184 315.813 C 48.781 314.702 49.724 312.625 50.438 311.633 C 51.054 310.777 51.749 310.135 52.946 309.961 C 54.689 309.707 58.705 311.672 60.472 311.633 C 60.506 311.632 60.54 311.631 60.572 311.628 C 57.86 310.828 55.212 310.118 54.201 309.543 C 53.328 309.046 53.622 308.772 52.946 308.288 C 52.722 308.128 52.387 307.967 51.992 307.802 C 51.927 308.37 51.828 308.819 51.692 309.124 C 51.016 310.636 49.057 310.186 47.93 309.961 C 46.834 309.741 45.931 309.203 45.003 307.87 C 43.48 305.682 41.554 300.494 40.823 296.165 C 40.149 292.179 39.97 285.656 40.455 282.042 C 39.482 280.39 38.475 278.022 37.648 275.71 C 36.683 275.624 35.672 275.199 34.97 274.007 C 33.281 271.141 31.995 258.509 32.241 252.98 C 31.782 252.869 31.379 252.665 31.081 252.268 C 30.428 251.399 29.642 250.563 30.245 247.67 C 30.744 245.281 32.693 239.789 35.349 233.099 C 35.483 230.021 35.669 227.496 35.806 226.395 C 35.981 224.995 36.154 224.792 36.642 224.305 C 37.13 223.817 37.957 223.5 38.732 223.469 C 38.917 223.461 39.123 223.436 39.339 223.414 C 39.394 223.285 39.45 223.155 39.505 223.025 C 38.067 222.969 36.333 222.318 35.806 221.378 C 34.785 219.555 36.413 211.871 37.896 210.927 C 38.515 210.533 39.663 210.779 40.678 211.33 C 40.675 210.7 40.724 210.118 40.823 209.673 C 41.103 208.416 41.967 207.046 42.913 206.746 C 43.1 206.687 43.324 206.66 43.569 206.661 C 44.379 204.076 46.96 199.97 48.766 197.794 C 50.094 196.193 52.08 195.024 53.726 193.963 C 54.27 193.116 54.78 192.388 55.246 191.796 C 55.257 191.746 55.269 191.698 55.282 191.65 C 55.718 190.036 57.379 188.095 59.044 187.051 C 60.811 185.943 63.817 185.275 65.733 185.379 C 67.349 185.466 68.807 187.432 69.914 187.051 C 71.056 186.658 71.597 183.678 72.422 182.87 C 72.985 182.32 73.251 182.011 74.094 182.034 C 74.858 182.055 76.567 182.433 78.123 182.999 C 79.64 182.061 82.005 181.325 83.883 181.198 C 86.285 181.035 89.483 183.057 91.408 182.87 C 92.85 182.73 93.266 181.355 94.753 181.198 C 96.82 180.98 100.866 182.839 103.114 182.87 C 104.817 182.894 105.903 181.76 107.294 182.034 C 108.83 182.337 111.428 183.746 111.893 184.961 C 112.197 185.754 111.925 186.947 111.346 187.876 C 111.39 187.878 111.433 187.882 111.475 187.887 C 112.293 187.99 112.451 188.663 113.147 188.723 C 114.036 188.8 115.628 187.343 116.492 187.887 C 116.709 188.024 116.941 188.29 117.171 188.64 C 119.491 188.979 122.52 190.111 123.599 190.813 C 124.506 191.405 124.243 192.253 124.853 192.904 C 125.566 193.664 127.036 193.929 127.779 194.994 C 128.672 196.274 128.17 199.24 129.452 200.429 C 130.836 201.713 134.723 200.505 136.14 202.101 C 137.043 203.117 137.731 205.373 138.014 207.507 C 138.672 208.097 139.272 208.756 139.73 209.453 C 140.886 211.213 142.184 214.583 142.839 217.483 C 143.189 217.194 143.595 217.119 144.084 217.151 C 144.325 217.167 144.621 217.228 144.945 217.329 C 146.027 217.402 147.219 217.758 148.091 218.65 C 149.334 219.923 151.047 223.596 151.883 226.6 C 152.299 226.874 152.644 227.212 152.863 227.603 C 153.92 229.491 153.369 236.818 152.26 241.296 C 153.904 246.17 154.525 257.31 153.944 260.456 C 153.613 262.245 152.849 263.145 151.854 263.383 C 151.704 263.419 151.533 263.442 151.347 263.45 C 149.969 264.934 147.204 265.847 146.174 266.9 C 145.436 267.655 145.719 268.826 144.92 268.991 C 144.235 269.132 142.566 268.658 141.106 267.948 C 139.986 268.276 138.617 268.296 137.395 268.155 C 135.419 267.925 131.733 266.822 131.124 265.646 C 130.652 264.735 131.515 263.227 132.378 262.302 C 133.412 261.194 135.527 259.835 137.395 259.793 Z M 30.371 351.767 C 31.478 351.524 34.471 351.114 35.806 353.021 C 38.071 356.257 39.684 372.096 38.663 377.682 C 39.213 378 39.685 378.427 39.987 378.941 C 41.789 382.014 40.858 397.953 38.732 400.262 C 38.576 400.432 38.389 400.572 38.18 400.685 C 38.567 400.897 38.91 401.174 39.151 401.516 C 40.293 403.134 40.957 408.868 39.987 410.713 C 39.825 411.022 39.573 411.324 39.267 411.602 C 39.514 411.831 39.756 412.092 39.987 412.385 C 41.021 413.697 42.606 416.855 43.731 419.84 C 44.23 420.154 44.678 420.479 45.003 420.747 C 45.87 421.462 45.749 422.309 46.676 423.255 C 48.07 424.678 51.811 427.213 53.365 428.272 C 54.313 428.918 54.644 428.966 55.455 429.526 C 56.131 429.993 57.304 430.544 58.174 431.207 C 60.967 431.364 65.39 432.012 66.742 432.87 C 67.764 433.518 67.06 434.729 67.997 435.379 C 69.43 436.372 74.52 435.574 75.94 437.051 C 76.989 438.142 77.289 440.588 77.032 442.3 C 78.373 442.13 79.669 442.065 80.538 442.068 C 81.992 442.073 82.689 442.881 83.883 442.904 C 85.183 442.928 86.948 441.987 88.064 442.068 C 88.927 442.13 89.478 442.143 90.154 442.904 C 91.331 444.229 94.425 449.736 93.498 451.265 C 92.579 452.781 86.417 452.341 84.719 452.101 C 83.806 451.972 83.684 451.301 83.047 451.265 C 82.315 451.224 81.78 452.177 80.538 452.101 C 78.334 451.966 71.004 450.082 70.087 448.339 C 69.756 447.71 69.921 446.837 70.341 445.988 C 66.054 445.097 59.328 442.341 57.545 441.232 C 56.561 440.62 56.911 440.177 56.291 439.559 C 55.428 438.7 52.826 437.866 52.528 436.633 C 52.449 436.305 52.5 435.895 52.632 435.453 C 52.447 435.41 52.272 435.384 52.11 435.379 C 50.801 435.337 49.537 436.554 48.766 436.215 C 48.056 435.903 48.285 434.497 47.512 433.706 C 46.476 432.649 43.534 431.762 42.495 430.78 C 41.761 430.086 41.798 429.247 41.241 428.69 C 40.683 428.132 39.641 428.246 39.151 427.436 C 38.976 427.148 38.816 426.734 38.678 426.251 C 38.558 426.1 38.436 425.937 38.314 425.763 C 36.628 423.366 32.834 414.783 33.298 412.385 C 33.419 411.761 33.811 411.283 34.303 410.943 C 33.497 408.584 33.049 404.741 33.298 403.188 C 33.474 402.09 34.044 401.143 34.724 400.62 C 34.132 400.346 33.619 399.942 33.298 399.425 C 31.852 397.102 32.137 386.369 33.359 380.807 C 31.604 379.45 29.896 374.46 29.117 370.579 C 28.129 365.657 28.37 355.439 29.117 353.021 C 29.416 352.054 29.671 351.92 30.371 351.767 Z M 116.492 450.429 C 115.625 451.477 114.483 451.588 113.147 452.101 C 111.523 452.724 108.594 453.834 107.294 453.773 C 106.484 453.735 106.303 452.914 105.622 452.937 C 104.723 452.968 103.192 454.375 102.278 454.609 C 101.615 454.779 101.355 454.825 100.605 454.609 C 99.341 454.246 95.836 453.123 95.171 451.683 C 94.532 450.3 95.433 447.432 96.425 446.248 C 97.335 445.162 99.55 444.8 100.605 444.576 C 101.316 444.425 101.657 444.471 102.278 444.576 C 103.023 444.703 103.585 445.483 104.786 445.412 C 106.5 445.311 110.131 442.969 112.7 442.266 C 112.696 442.036 112.705 441.829 112.729 441.65 C 112.904 440.332 113.902 439.064 114.819 438.723 C 115.721 438.388 116.899 439.703 118.164 439.559 C 119.742 439.38 122.584 438.293 123.599 437.051 C 124.485 435.967 123.532 434.002 124.435 432.87 C 125.506 431.527 128.477 431.682 130.288 429.944 C 132.239 428.07 133.706 422.768 135.499 420.447 C 136.39 416.705 139.041 411.02 139.903 409.459 C 140.394 408.57 140.636 409.056 141.157 408.205 C 142.088 406.685 143.789 400.909 145.199 397.796 C 144.402 395.233 144.737 388.159 145.583 382.904 C 145.246 382.561 144.957 382.154 144.747 381.694 C 142.96 377.772 146.92 361.466 146.419 354.938 C 146.206 352.162 145.041 349.8 144.344 347.886 C 141.287 344.296 136.443 332.19 135.078 326.46 C 134.808 326.104 134.836 325.695 134.05 325.011 C 131.671 322.942 118.209 316.8 116.91 313.723 C 116.168 311.967 117.459 309.606 119 309.124 C 121.247 308.422 129.229 312.608 131.124 313.723 C 131.979 314.226 131.647 314.39 132.378 314.977 C 133.815 316.133 138.753 318.31 140.321 320.412 C 140.823 321.085 141.279 321.934 141.614 322.789 C 142.139 323.099 142.637 323.496 143.074 324.001 C 145.422 326.712 149.122 336.556 150.355 342.755 C 150.764 343.074 151.136 343.503 151.436 344.068 C 153.172 347.342 153.495 358.243 153.108 364.971 C 152.888 368.795 152.355 374.094 151.522 378.126 C 151.725 378.378 151.897 378.651 152.027 378.941 C 153.132 381.409 152.559 390.863 151.381 396.37 C 152.245 397.831 152.806 400.866 152.027 404.024 C 150.968 408.317 145.827 418.585 142.166 423.189 C 141.839 425.51 140.628 428.657 139.485 430.78 C 137.744 434.017 133.279 437.721 131.542 439.559 C 130.545 440.615 130.123 440.854 129.452 441.65 C 128.725 442.51 128.226 443.875 127.361 444.576 C 126.538 445.243 125.527 445.248 124.435 445.83 C 123.081 446.553 120.959 448.631 119.836 448.757 C 119.104 448.839 118.86 447.981 118.164 447.92 C 118.086 447.913 118.003 447.919 117.915 447.934 C 117.483 448.942 116.946 449.88 116.492 450.429 Z M 73.013 293.238 C 73.954 292.631 75.931 293.839 76.776 294.492 C 77.471 295.03 76.998 296.025 78.03 296.583 C 80.076 297.688 87.673 298.204 91.408 298.255 C 94.373 298.295 96.007 297.228 98.933 297.419 C 102.598 297.658 110.451 298.439 111.893 300.345 C 112.912 301.692 112.35 304.529 110.639 305.78 C 107.877 307.799 96.356 308.153 92.244 307.452 C 89.592 307 88.745 305.222 86.809 304.526 C 84.846 303.82 81.897 303.713 80.538 303.272 C 79.708 303.002 79.424 302.436 78.866 302.436 C 78.309 302.436 77.764 303.135 77.194 303.272 C 76.648 303.402 76.246 303.447 75.522 303.272 C 74.394 302.999 71.505 302.548 70.923 301.181 C 70.217 299.522 71.755 294.051 73.013 293.238 Z M 59.635 263.974 C 60.825 263.879 63.232 263.685 64.234 264.81 C 65.505 266.237 64.424 271.253 65.488 273.171 C 66.334 274.696 68.167 274.605 69.251 276.098 C 70.649 278.024 73.179 282.736 72.595 284.459 C 72.132 285.826 69.854 286.774 67.997 286.549 C 65.417 286.237 60.196 283.536 58.381 280.278 C 56.335 276.606 56.603 266.852 57.545 264.81 C 57.981 263.866 58.747 264.045 59.635 263.974 Z M 91.408 212.971 C 92.417 212.785 95.119 213.243 96.906 213.968 C 97.186 213.042 98.023 212.286 98.933 212.135 C 100.235 211.917 103.684 212.95 104.368 214.225 C 105.04 215.478 104.129 218.639 103.114 219.66 C 102.202 220.576 99.958 221.144 98.933 220.496 C 98.442 220.185 97.965 219.343 97.588 218.353 C 97.235 218.861 96.829 219.322 96.425 219.66 C 94.894 220.943 90.646 221.025 89.318 221.75 C 88.568 222.159 88.671 222.675 88.064 223.004 C 87.271 223.434 85.608 223.918 84.719 223.84 C 84.023 223.78 83.617 223.14 83.047 223.004 C 82.501 222.874 82.051 223.093 81.375 223.004 C 80.472 222.885 79.62 222.149 78.03 222.168 C 75.414 222.199 68.79 225.054 66.324 224.676 C 64.8 224.443 63.768 223.658 63.398 222.586 C 62.956 221.308 63.827 218.138 64.652 217.151 C 65.264 216.419 66.139 216.292 67.161 216.315 C 68.509 216.346 70.096 218.094 72.177 217.987 C 75.031 217.842 81.075 214.246 83.047 213.807 C 83.954 213.605 83.961 213.737 84.719 213.807 C 85.902 213.916 88.591 214.961 89.736 214.643 C 90.579 214.409 90.485 213.141 91.408 212.971 Z" style="fill: rgb(237, 240, 243); fill-opacity: 1; fill-rule: nonzero; stroke: none; stroke-dasharray: none; stroke-dashoffset: 0px; stroke-linecap: butt; stroke-linejoin: miter; stroke-miterlimit: 4; stroke-opacity: 1; stroke-width: 1px; paint-order: normal; vector-effect: none; opacity: 1; mix-blend-mode: normal; isolation: auto;"></path>
  <path d="M 45.986 161.743 L 55.661 157.271 C 55.364 156.961 55.148 156.621 55.037 156.254 C 54.566 154.699 56.301 151.105 57.545 149.983 C 58.539 149.086 59.699 149.225 61.308 149.147 C 63.547 149.037 67.87 151.17 70.087 149.983 C 72.375 148.757 72.797 143.436 74.686 141.622 C 76.253 140.116 78.844 140.21 80.12 139.113 C 81.201 138.185 81.185 136.054 82.211 135.769 C 82.821 135.599 83.95 135.838 84.947 136.3 C 87.126 135.417 90.136 134.521 91.167 133.679 C 92.038 132.966 91.575 132.281 92.421 131.588 C 93.797 130.462 98.388 128.629 99.946 128.244 C 100.769 128.04 100.745 128.124 101.618 128.244 C 102.183 128.321 103.225 128.403 104.404 128.534 C 104.373 128.277 104.36 128.039 104.368 127.826 C 104.432 126.062 105.399 124.166 106.876 123.227 C 108.625 122.116 113.231 122.171 114.819 122.391 C 115.708 122.514 115.549 123.257 116.492 123.227 C 118.451 123.166 124.279 119.363 127.361 119.046 C 128.621 118.917 130.052 118.941 131.246 119.159 C 131.94 117.761 134.304 116.703 135.722 115.702 C 137.127 114.711 138.36 114.097 139.903 113.194 C 141.66 112.166 144.169 110.648 145.756 109.849 C 146.931 109.258 147.976 109.201 148.682 108.595 C 149.317 108.05 148.873 107.226 149.936 106.505 C 152.23 104.948 163.105 102.219 165.823 101.488 C 167.017 101.167 167.212 101.533 167.913 101.07 C 168.88 100.431 169.606 97.605 170.839 97.307 C 171.953 97.038 174.378 97.716 175.201 98.898 C 175.403 98.592 175.63 98.326 175.856 98.143 C 176.827 97.358 179.484 97.998 180.455 97.307 C 181.246 96.745 180.757 95.169 181.709 94.799 C 182.807 94.373 185.467 95.607 187.802 96.194 L 197.236 91.833 C 196.872 91.592 196.614 91.325 196.518 91.036 C 195.921 89.246 198.555 84.621 201.952 82.257 C 206.79 78.89 221.427 75.487 226.163 75.567 C 227.134 74.081 228.355 72.583 229.613 71.388 C 233.607 67.594 244.458 62.062 248.007 61.354 C 249.732 61.01 250.034 62.446 251.352 62.19 C 253.187 61.834 255.633 58.309 258.041 58.01 C 260.304 57.728 264.403 58.915 265.708 60.183 L 268.182 59.04 C 267.855 57.696 268.298 55.248 269.502 53.829 C 271.093 51.953 276.49 51.163 278.281 49.648 C 279.529 48.593 279.158 47.211 280.371 46.304 C 281.628 45.364 284.306 44.277 286.369 43.913 C 287.204 42.673 288.23 41.579 289.222 41.287 C 289.911 41.084 290.912 41.178 291.976 41.445 C 292.33 41.103 292.726 40.772 293.158 40.451 C 295.152 38.968 300.406 37.655 301.937 36.689 C 302.718 36.196 302.822 35.804 303.191 35.434 C 303.505 35.12 303.445 34.644 304.028 34.598 C 305.361 34.493 311.99 36.514 312.807 37.943 C 313.362 38.913 312.853 40.08 311.553 41.287 C 311.442 41.39 311.312 41.499 311.165 41.614 L 311.79 43.735 C 312.911 43.919 314.235 44.505 315.07 45.793 C 317.17 49.032 319.844 63.116 318.499 66.509 L 318.691 67.16 C 320.154 67.426 322.42 68.652 323.431 70.041 C 324.761 71.866 324.014 76.318 325.104 77.984 C 325.92 79.232 327.524 78.202 328.448 80.074 C 330.379 83.989 333.038 103.249 332.181 110.129 C 332.627 111.282 332.856 112.89 333.016 114.633 C 334.329 114.651 335.943 114.962 336.809 116.027 C 338.79 118.46 338.197 129.256 339.318 131.495 C 339.818 132.496 340.439 131.503 340.99 132.75 C 341.679 134.307 342.914 139.71 344.033 145.917 C 344.855 146.299 345.609 146.944 346.007 147.8 C 346.679 149.249 346.229 152.447 345.617 155.947 C 346.778 158.001 347.277 162.506 348.515 164.104 C 349.494 165.369 350.729 164.774 351.86 166.194 C 353.767 168.592 356.737 174.906 357.712 179.572 C 358.58 183.721 359.075 190.341 358.136 193.282 C 358.589 195.173 359.006 197.536 359.333 200.006 C 359.351 200.023 359.368 200.04 359.385 200.057 C 361.938 202.61 367.541 215.34 368.553 221.326 C 368.563 221.343 368.572 221.361 368.582 221.378 C 369.919 223.818 371.011 232.15 371.196 239.127 C 371.925 240.61 371.626 243.931 371.558 246.627 L 372.789 250.808 C 373.26 250.877 373.813 250.835 374.435 251.479 C 376.733 253.858 382.596 263.194 384.468 268.201 C 385.646 271.351 386.101 274.995 386.165 277.428 C 388.653 280.462 388.19 294.433 389.485 297.047 C 390.012 298.112 390.666 297.173 391.157 298.301 C 392.428 301.224 395.288 318.1 393.818 322.199 L 394.714 325.24 C 395.24 325.357 395.806 325.418 396.174 325.893 C 397.067 327.048 397.165 329.361 397.846 331.746 C 398.704 334.748 401.84 340.873 401.296 343.149 C 404.083 349.161 407.591 358.882 408.563 364.123 C 408.619 364.196 408.67 364.273 408.716 364.355 C 408.863 364.618 408.978 364.984 409.065 365.431 C 409.571 365.757 410.037 366.222 410.388 366.863 C 411.958 369.731 413.586 381.127 412.26 384.805 L 413.594 389.335 C 413.972 389.618 414.309 389.961 414.569 390.368 C 415.571 391.936 416.446 396.232 416.687 399.834 L 430.43 446.49 L 413.13 405.961 C 412.559 405.932 412.026 405.866 411.642 405.836 C 410.754 405.765 410.11 405.927 409.552 405 C 408.647 403.496 407.751 397.212 407.685 393.205 L 403.677 383.816 C 402.679 383.946 401.585 383.762 400.773 383.261 C 397.774 381.412 393.821 367.366 391.993 364.866 C 391.258 363.86 390.952 364.424 390.321 363.612 C 389.172 362.132 386.903 358.653 386.14 355.25 C 385.384 351.88 385.404 345.404 385.814 341.968 L 384.053 337.842 C 383.215 338.486 382.174 338.829 381.542 338.946 C 380.746 339.094 380.18 339.099 379.452 338.11 C 377.688 335.718 373.179 321.562 373.599 318.461 C 373.6 318.453 373.601 318.446 373.602 318.438 C 372.272 314.906 370.861 309.427 369.411 303.538 L 354.312 268.164 C 353.885 267.775 353.483 267.404 353.114 267.04 C 351.595 265.544 350.148 265.642 349.351 264.113 C 348.766 262.99 348.423 260.985 348.331 259.124 C 347.136 259.524 345.679 259.355 344.753 258.679 C 342.164 256.786 341.006 243.6 338.9 240.284 C 337.696 238.389 335.978 239.209 335.137 237.357 C 334.066 235 333.662 228.195 333.931 224.084 C 333.143 222.256 332.598 219.199 331.921 215.709 L 321.186 190.559 C 316.285 183.112 310.818 175.529 309.217 171.304 C 307.861 167.723 307.893 165.402 308.381 163.779 C 308.394 163.737 308.407 163.695 308.421 163.653 C 308.276 163.867 308.122 164.052 307.963 164.197 C 306.783 165.273 303.57 165.775 302.11 165.033 C 301.774 164.862 301.432 164.565 301.106 164.19 C 299.31 164.053 296.879 161.798 295.421 161.689 C 294.364 161.609 293.701 162.543 292.913 162.525 C 292.174 162.507 291.316 162.407 290.823 161.689 C 290.812 161.673 290.801 161.656 290.79 161.639 C 279.451 164.412 261.48 166.289 257.796 166.705 C 256.558 166.845 256.744 166.6 256.124 166.705 C 255.379 166.832 254.648 167.477 253.615 167.541 C 252.274 167.625 250.271 166.705 248.599 166.705 C 246.926 166.705 245.036 167.745 243.582 167.541 C 242.296 167.361 241.84 166.065 240.237 165.869 C 237.77 165.568 231.482 167.692 229.368 167.541 C 228.247 167.462 228.036 167.074 227.278 166.705 C 226.387 166.272 225.432 164.998 224.351 165.033 C 223.099 165.073 221.504 167.323 220.171 167.541 C 219.01 167.731 217.715 166.628 216.826 166.705 C 216.13 166.766 215.754 167.521 215.154 167.541 C 214.507 167.563 213.633 167.381 213.064 166.705 C 212.849 166.45 212.624 166.06 212.411 165.595 C 209.766 166.274 206.541 166.716 205.12 166.705 C 203.852 166.696 203.834 165.979 202.612 165.869 C 200.596 165.688 196.473 166.842 193.415 166.705 C 190.341 166.568 186.876 164.929 184.217 165.033 C 181.978 165.121 179.679 166.497 178.365 166.705 C 177.581 166.83 177.313 166.6 176.692 166.705 C 175.947 166.832 175.099 167.513 174.184 167.541 C 173.167 167.573 171.954 166.705 170.839 166.705 C 169.725 166.705 169.091 167.498 167.495 167.541 C 164.882 167.613 159.063 165.735 155.789 165.869 C 153.151 165.977 150.703 168.305 149.1 167.541 C 148.766 167.382 148.437 167.093 148.128 166.719 C 144.232 167.333 137.872 166.922 135.722 166.705 C 134.333 166.566 134.129 165.897 133.214 165.869 C 132.197 165.838 131.24 166.64 129.87 166.705 C 128.077 166.791 125.625 165.789 123.181 165.869 C 120.394 165.961 116.655 167.471 113.983 167.541 C 111.759 167.6 109.888 166.666 108.13 166.705 C 106.588 166.739 105.112 167.754 103.95 167.541 C 102.938 167.356 102.385 166.027 101.441 165.869 C 100.446 165.703 99.358 166.665 98.097 166.705 C 96.624 166.752 94.832 165.885 93.08 165.869 C 91.219 165.852 89.202 166.889 87.227 166.705 C 86.295 166.619 85.084 166.457 83.966 166.183 C 82.544 166.914 80.661 167.376 78.866 167.541 C 75.772 167.826 70.678 165.854 67.997 165.869 C 66.162 165.88 64.864 166.592 63.816 166.705 C 63.095 166.783 62.993 166.833 62.144 166.705 C 60.539 166.464 55.071 166.138 54.201 164.615 C 53.845 163.993 53.933 162.861 54.269 161.717 L 45.986 161.743 Z M 309.104 162.254 C 309.056 162.39 309.005 162.523 308.951 162.652 C 309.019 162.564 309.091 162.48 309.167 162.401 L 309.104 162.254 Z M 175.522 101.87 C 175.428 101.857 175.338 101.841 175.254 101.823 C 175.238 101.887 175.222 101.951 175.205 102.017 L 175.522 101.87 Z M 123.181 125.735 C 121.404 125.925 115.363 129.097 112.367 131.061 L 123.728 125.81 C 123.594 125.743 123.423 125.709 123.181 125.735 Z" style="fill: rgb(216, 216, 216); stroke: rgb(0, 0, 0);"></path>
</svg>