<?xml version="1.0" ?><svg id="Layer_1" style="enable-background:new 0 0 2048 2048;" version="1.1" viewBox="0 0 2048 2048" xml:space="preserve" xmlns="http://www.w3.org/2000/svg" xmlns:xlink="http://www.w3.org/1999/xlink"><style type="text/css">
	.st0{fill:#EDEBED;}
	.st1{fill:#FFE17D;}
	.st2{fill:#FF8587;}
</style><g><g><g><g><g id="XMLID_3_"><path class="st0" d="M1564.8,790.4v966.4H483.2v-1447l83.2,65.5c6.4,5,15.4,5,21.8,0L688.9,296l100.8,79.4c6.4,5,15.4,5,21.8,0       L912.2,296l100.8,79.4c6.4,5,15.4,5,21.8,0l100.8-79.4l100.8,79.4c6.4,5,15.4,5,21.8,0l100.8-79.4l100.8,79.4       c3.2,2.5,7,3.8,10.9,3.8c3.9,0,7.7-1.3,10.9-3.8l83.5-65.7C1564.8,465.5,1564.8,746.8,1564.8,790.4z M1434.4,1195.7       c0-9.7-7.9-17.6-17.6-17.6H887.7c-9.7,0-17.6,7.9-17.6,17.6c0,9.7,7.9,17.6,17.6,17.6h529.1       C1426.5,1213.2,1434.4,1205.4,1434.4,1195.7z M1434.4,1273.3c0-9.7-7.9-17.6-17.6-17.6H887.7c-9.7,0-17.6,7.9-17.6,17.6       c0,9.7,7.9,17.6,17.6,17.6h529.1C1426.5,1290.9,1434.4,1283,1434.4,1273.3z M1434.4,1481.5c0-9.7-7.9-17.6-17.6-17.6H887.7       c-9.7,0-17.6,7.9-17.6,17.6c0,9.7,7.9,17.6,17.6,17.6h529.1C1426.5,1499,1434.4,1491.2,1434.4,1481.5z M1434.4,1559.1       c0-9.7-7.9-17.6-17.6-17.6H887.7c-9.7,0-17.6,7.9-17.6,17.6c0,9.7,7.9,17.6,17.6,17.6h529.1       C1426.5,1576.7,1434.4,1568.8,1434.4,1559.1z M1289.3,752.4c0-146.3-119-265.2-265.3-265.2s-265.3,119-265.3,265.2       c0,146.3,119,265.3,265.3,265.3S1289.3,898.7,1289.3,752.4z M789.5,1590.6v-140.7c0-9.7-7.9-17.6-17.6-17.6H631.2       c-9.7,0-17.6,7.9-17.6,17.6v140.7c0,9.7,7.9,17.6,17.6,17.6h140.7C781.6,1608.2,789.5,1600.4,789.5,1590.6z M789.5,1304.8       v-140.7c0-9.7-7.9-17.6-17.6-17.6H631.2c-9.7,0-17.6,7.9-17.6,17.6v140.7c0,9.7,7.9,17.6,17.6,17.6h140.7       C781.6,1322.4,789.5,1314.6,789.5,1304.8z"/><path class="st1" d="M1024,522.4c126.9,0,230.1,103.2,230.1,230.1c0,126.9-103.2,230.1-230.1,230.1S793.9,879.3,793.9,752.4       C793.9,625.6,897.1,522.4,1024,522.4z M1104.1,796.3c0-12.7-2.7-23.4-7.9-31.9c-5.3-8.5-12.7-15.4-22.1-20.3       c-9.6-5.1-24.8-10.1-45.1-14.9c-21.3-5-34.5-9.8-40.2-14.7c-4.9-4.1-7.3-9.2-7.3-15c0-6.4,2.7-11.6,7.9-15.4       c7.5-5.4,17.8-8.2,30.7-8.2c12.6,0,22.2,2.6,28.7,7.7c3.6,2.9,6.6,6.8,8.8,11.6c2.9,6.3,9.3,10.4,16.4,10.4c0.3,0,0.5,0,0.8,0       l1,0c6.3-0.3,11.9-3.7,15-9.2c3.1-5.4,3.1-11.9,0.2-17.4c-3.2-5.8-7.4-11.1-12.7-15.7c-8.9-7.8-21.1-12.8-36.5-15.1v-35.9       c0-9.7-7.9-17.6-17.6-17.6c-9.7,0-17.6,7.9-17.6,17.6v35.1c-9.8,1-18.6,3.1-26.2,6.4c-10.8,4.6-19.2,11.4-24.9,20.2       c-5.7,8.8-8.6,18.4-8.6,28.4c0,15.9,6,29,18.4,40.1c8.8,7.9,24.5,14.6,46.6,20.1c17.9,4.5,29.1,7.5,34.3,9.3       c7.8,2.8,13.2,6.1,16.5,10c3.4,4,5.1,8.9,5.1,14.6c0,8.6-3.9,16.2-11.4,22.5c-7.4,6.2-18.5,9.4-32.8,9.4       c-13.6,0-24.6-3.5-32.7-10.5c-5-4.3-9-10-11.9-17.2c-2.7-6.7-9.3-11.1-16.6-11.1c-0.6,0-1.2,0-1.8,0.1       c-5.7,0.6-10.8,3.7-13.8,8.6c-2.9,4.8-3.5,10.6-1.4,15.8c4.2,10.6,10.4,19.5,18.4,26.4c10.6,9.1,24.9,14.7,42.9,16.8v35.3       c0,9.7,7.9,17.6,17.6,17.6c9.7,0,17.6-7.9,17.6-17.6v-35.5c9.8-1.2,18.5-3.3,25.9-6.4c11.6-4.9,20.7-12.4,27-22.3       C1100.9,818.5,1104.1,807.7,1104.1,796.3z"/><rect class="st2" height="105.5" width="105.5" x="648.8" y="1467.5"/><rect class="st2" height="105.5" width="105.5" x="648.8" y="1181.7"/><path d="M1600,790.4v984c0,9.7-7.9,17.6-17.6,17.6H465.6c-9.7,0-17.6-7.9-17.6-17.6V273.6c0,5.2,2.3,10.3,6.7,13.8l28.5,22.4       v1447h1081.6V790.4c0-43.6,0-324.9-0.1-480.8l28.2-22.2c7.6-6,8.9-17.1,2.9-24.7c-3.3-4.1-8-6.4-12.9-6.7       c9.4,0.3,16.9,8.1,16.9,17.6C1600,417.2,1600,743.2,1600,790.4z"/><path d="M1595.9,262.7c6,7.6,4.7,18.7-2.9,24.7l-28.2,22.2c0-12.9,0-25,0-36c0-9.7,7.8-17.5,17.4-17.6c0.3,0,0.6,0,0.8,0       C1587.9,256.3,1592.6,258.6,1595.9,262.7z"/><path d="M1582.3,256c0.2,0,0.5,0,0.7,0c-0.3,0-0.5,0-0.8,0C1582.2,256,1582.3,256,1582.3,256z"/><path d="M1571.2,259.8c3.3-2.6,7.2-3.8,11-3.8c-9.6,0.1-17.4,7.9-17.4,17.6c0,11,0,23.1,0,36l-83.5,65.7       c-3.2,2.5-7,3.8-10.9,3.8c-3.8,0-7.7-1.3-10.9-3.8L1358.8,296L1258,375.4c-6.4,5-15.4,5-21.8,0L1135.4,296l-100.8,79.4       c-6.4,5-15.4,5-21.8,0L912.2,296l-100.8,79.4c-6.4,5-15.4,5-21.8,0L688.9,296l-100.7,79.4c-6.4,5-15.4,5-21.8,0l-83.2-65.5       v-36.2c0-5.5-2.5-10.3-6.4-13.6l100.4,79.1L678,259.8c6.4-5,15.4-5,21.8,0l100.8,79.4l100.7-79.4c6.4-5,15.4-5,21.8,0       l100.8,79.4l100.8-79.4c6.4-5,15.4-5,21.8,0l100.8,79.4l100.8-79.4c6.4-5,15.4-5,21.8,0l100.8,79.4L1571.2,259.8z"/><path d="M1416.8,1178.1c9.7,0,17.6,7.9,17.6,17.6c0,9.7-7.9,17.6-17.6,17.6H887.7c-9.7,0-17.6-7.9-17.6-17.6       c0-9.7,7.9-17.6,17.6-17.6H1416.8z"/><path d="M1416.8,1255.7c9.7,0,17.6,7.9,17.6,17.6c0,9.7-7.9,17.6-17.6,17.6H887.7c-9.7,0-17.6-7.9-17.6-17.6       c0-9.7,7.9-17.6,17.6-17.6H1416.8z"/><path d="M1416.8,1463.9c9.7,0,17.6,7.9,17.6,17.6c0,9.7-7.9,17.6-17.6,17.6H887.7c-9.7,0-17.6-7.9-17.6-17.6       c0-9.7,7.9-17.6,17.6-17.6H1416.8z"/><path d="M1416.8,1541.6c9.7,0,17.6,7.9,17.6,17.6c0,9.7-7.9,17.6-17.6,17.6H887.7c-9.7,0-17.6-7.9-17.6-17.6       c0-9.7,7.9-17.6,17.6-17.6H1416.8z"/><path d="M1024,487.2c146.3,0,265.3,119,265.3,265.2c0,146.3-119,265.3-265.3,265.3s-265.3-119-265.3-265.3       C758.7,606.2,877.7,487.2,1024,487.2z M1254.1,752.4c0-126.9-103.2-230.1-230.1-230.1S793.9,625.6,793.9,752.4       c0,126.9,103.2,230.1,230.1,230.1S1254.1,879.3,1254.1,752.4z"/><path d="M1096.1,764.3c5.3,8.5,7.9,19.3,7.9,31.9c0,11.4-3.2,22.3-9.6,32.3c-6.3,10-15.4,17.5-27,22.3       c-7.4,3.1-16.1,5.2-25.9,6.4v-6.3c0-9.7-7.9-17.6-17.6-17.6c-9.7,0-17.6,7.9-17.6,17.6v6.5c-17.9-2.1-32.3-7.7-42.9-16.8       c-8-6.9-14.2-15.8-18.4-26.4c-2.1-5.2-1.6-11,1.4-15.8c3-4.9,8-8.1,13.8-8.6c0.6,0,1.2-0.1,1.8-0.1c7.4,0,13.9,4.3,16.6,11.1       c2.9,7.1,6.9,12.9,11.9,17.2c8.1,6.9,19.1,10.5,32.7,10.5c14.3,0,25.3-3.2,32.8-9.4c7.6-6.3,11.4-13.9,11.4-22.5       c0-5.7-1.7-10.6-5.1-14.6c-3.3-3.9-8.7-7.2-16.5-10c-5.1-1.8-16.3-4.8-34.3-9.3c-22.2-5.5-37.9-12.3-46.6-20.1       c-12.4-11.1-18.4-24.2-18.4-40.1c0-10.1,2.9-19.6,8.6-28.4c5.7-8.8,14.1-15.6,24.9-20.2c7.6-3.2,16.4-5.4,26.2-6.4v6.1       c0,9.7,7.9,17.6,17.6,17.6c9.7,0,17.6-7.9,17.6-17.6v-5.3c15.3,2.3,27.6,7.4,36.5,15.1c5.3,4.6,9.6,9.8,12.7,15.7       c3,5.5,2.9,11.9-0.2,17.4c-3.1,5.5-8.7,9-15,9.2l-1,0c-0.3,0-0.5,0-0.8,0c-7,0-13.5-4.1-16.4-10.4c-2.2-4.8-5.2-8.7-8.8-11.6       c-6.5-5.1-16.1-7.7-28.7-7.7c-12.9,0-23.2,2.7-30.7,8.2c-5.3,3.8-7.9,9-7.9,15.4c0,5.8,2.5,10.9,7.3,15       c5.8,4.8,18.9,9.6,40.2,14.7c20.3,4.8,35.5,9.8,45.1,14.9C1083.4,748.9,1090.9,755.8,1096.1,764.3z"/><path d="M1041.6,857.2v35.5c0,9.7-7.9,17.6-17.6,17.6c-9.7,0-17.6-7.9-17.6-17.6v-35.3c5.2,0.6,10.7,0.9,16.4,0.9       C1029.5,858.3,1035.8,857.9,1041.6,857.2z"/><path d="M1041.6,850.9v6.3c-5.8,0.7-12.1,1-18.7,1c-5.8,0-11.3-0.3-16.4-0.9v-6.5c0-9.7,7.9-17.6,17.6-17.6       C1033.7,833.3,1041.6,841.2,1041.6,850.9z"/><path d="M1041.6,648.1v5.3c0,9.7-7.9,17.6-17.6,17.6c-9.7,0-17.6-7.9-17.6-17.6v-6.1c4.5-0.5,9.1-0.7,14-0.7       C1028,646.6,1035.1,647.1,1041.6,648.1z"/><path d="M1041.6,612.2v35.9c-6.5-1-13.6-1.5-21.2-1.5c-4.9,0-9.6,0.2-14,0.7v-35.1c0-9.7,7.9-17.6,17.6-17.6       C1033.7,594.6,1041.6,602.5,1041.6,612.2z"/><path d="M789.5,1449.9v140.7c0,9.7-7.9,17.6-17.6,17.6H631.2c-9.7,0-17.6-7.9-17.6-17.6v-140.7c0-9.7,7.9-17.6,17.6-17.6h140.7       C781.6,1432.4,789.5,1440.2,789.5,1449.9z M754.3,1573.1v-105.5H648.8v105.5H754.3z"/><path d="M789.5,1164.1v140.7c0,9.7-7.9,17.6-17.6,17.6H631.2c-9.7,0-17.6-7.9-17.6-17.6v-140.7c0-9.7,7.9-17.6,17.6-17.6h140.7       C781.6,1146.6,789.5,1154.4,789.5,1164.1z M754.3,1287.3v-105.5H648.8v105.5H754.3z"/><path d="M483.2,273.6v36.2l-28.5-22.4c-4.4-3.5-6.7-8.6-6.7-13.8v0c0-0.3,0-0.6,0-0.9c0-0.7,0.1-1.4,0.2-2.1       c0-0.2,0.1-0.4,0.1-0.5c0.2-1,0.5-1.9,0.8-2.8c0.1-0.2,0.2-0.4,0.3-0.7c0.3-0.7,0.6-1.3,1-2c0.1-0.1,0.1-0.2,0.2-0.4       c0.1-0.2,0.2-0.3,0.3-0.5c0.1-0.1,0.2-0.3,0.3-0.4c0.1-0.2,0.3-0.4,0.4-0.6c0,0,0,0,0,0c0.9-1.1,1.8-2.1,2.9-2.9       c0.2-0.2,0.4-0.3,0.6-0.5c0.3-0.2,0.6-0.5,1-0.7c0.6-0.4,1.1-0.7,1.7-1c0.3-0.1,0.6-0.3,0.9-0.4c0.4-0.2,0.7-0.3,1.1-0.4       c0.2-0.1,0.5-0.2,0.7-0.2c0.3-0.1,0.6-0.2,0.9-0.2c0,0,0,0,0.1,0c0.2-0.1,0.4-0.1,0.7-0.1c1.1-0.2,2.1-0.3,3.2-0.3       c0.3,0,0.6,0,0.9,0c0.7,0,1.4,0.1,2.1,0.2c0.2,0,0.4,0.1,0.5,0.1c1,0.2,1.9,0.5,2.8,0.8c0.2,0.1,0.4,0.2,0.7,0.3       c0.7,0.3,1.3,0.6,2,1c0.1,0.1,0.2,0.1,0.4,0.2c0.2,0.1,0.3,0.2,0.5,0.3c0.1,0.1,0.3,0.2,0.4,0.3c0.2,0.1,0.4,0.3,0.6,0.4       c0,0,0,0,0,0l0.3,0.2C480.7,263.2,483.2,268.1,483.2,273.6z"/><path d="M476.4,259.7c-0.2-0.1-0.4-0.3-0.6-0.4C476.1,259.4,476.2,259.6,476.4,259.7z"/><path d="M475.4,259c-0.1-0.1-0.3-0.2-0.5-0.3C475.1,258.8,475.3,258.9,475.4,259z"/><path d="M475,258.7c-0.1-0.1-0.2-0.1-0.4-0.2C474.7,258.6,474.9,258.6,475,258.7z"/><path d="M472.6,257.5c-0.2-0.1-0.4-0.2-0.7-0.3C472.2,257.3,472.4,257.4,472.6,257.5z"/><path d="M469.2,256.4c-0.2,0-0.4-0.1-0.5-0.1C468.8,256.3,469,256.3,469.2,256.4z"/><path d="M466.5,256c-0.3,0-0.6,0-0.9,0C465.9,256,466.2,256,466.5,256z"/><path d="M462.4,256.3c-0.2,0-0.4,0.1-0.7,0.1C462,256.4,462.2,256.3,462.4,256.3z"/><path d="M461.7,256.4c-0.3,0.1-0.6,0.1-0.9,0.2C461.1,256.6,461.4,256.5,461.7,256.4z"/><path d="M460.8,256.7c-0.2,0.1-0.5,0.1-0.7,0.2C460.3,256.8,460.5,256.7,460.8,256.7z"/><path d="M458.9,257.3c-0.3,0.1-0.6,0.2-0.9,0.4C458.3,257.6,458.6,257.4,458.9,257.3z"/><path d="M458,257.7c-0.6,0.3-1.2,0.6-1.7,1C456.9,258.3,457.4,258,458,257.7z"/><path d="M455.3,259.3c-0.2,0.1-0.4,0.3-0.6,0.5C454.9,259.6,455.1,259.5,455.3,259.3z"/><path d="M451.7,262.7c-0.1,0.2-0.3,0.4-0.4,0.6C451.4,263.1,451.6,262.9,451.7,262.7z"/><path d="M451,263.8c-0.1,0.1-0.2,0.3-0.3,0.5C450.8,264.1,450.9,263.9,451,263.8z"/><path d="M450.7,264.2c-0.1,0.1-0.1,0.2-0.2,0.4C450.6,264.5,450.6,264.3,450.7,264.2z"/><path d="M449.5,266.6c-0.1,0.2-0.2,0.4-0.3,0.7C449.3,267,449.4,266.8,449.5,266.6z"/><path d="M448.4,270c0,0.2-0.1,0.4-0.1,0.5C448.3,270.4,448.3,270.2,448.4,270z"/><path d="M448,272.7c0,0.3,0,0.6,0,0.9C448,273.3,448,273,448,272.7z"/></g></g></g></g></g></svg>