<svg width="1098" height="315" xmlns="http://www.w3.org/2000/svg"><defs><linearGradient x1="102.304%" y1="49.165%" x2="-1.728%" y2="52.616%" id="prefix__a"><stop stop-color="#B76E79" offset="0%"/><stop stop-color="#CC949C" offset="32.403%"/><stop stop-color="#CC959D" offset="34.697%"/><stop stop-color="#E0BCBF" offset="68.562%"/><stop stop-color="#C06573" offset="100%"/></linearGradient><linearGradient x1="4.8%" y1="50.805%" x2="83.362%" y2="49.093%" id="prefix__b"><stop stop-color="#B76E79" offset="0%"/><stop stop-color="#D28792" offset="100%"/></linearGradient><linearGradient x1="40.058%" y1="89.301%" x2="57.338%" y2="5.736%" id="prefix__c"><stop stop-color="#B76E79" offset="0%"/><stop stop-color="#D28792" offset="100%"/></linearGradient><linearGradient x1="4.8%" y1="65.815%" x2="83.362%" y2="32.188%" id="prefix__d"><stop stop-color="#B76E79" offset="0%"/><stop stop-color="#D28792" offset="100%"/></linearGradient></defs><g fill="none" fill-rule="evenodd"><path d="M61.01 231.408c6.192 0 12.126-.459 17.802-1.376a83.563 83.563 0 0016.426-4.386c5.275-2.007 9.833-4.787 13.674-8.342 3.841-3.555 6.565-7.683 8.17-12.384a41.02 41.02 0 001.806-10.148c.172-3.44.086-6.68-.258-9.718-.344-3.039-1.261-6.307-2.752-9.804-1.49-3.497-2.895-6.593-4.214-9.288-1.319-2.695-3.325-5.877-6.02-9.546-2.695-3.67-4.96-6.68-6.794-9.03-1.835-2.35-4.53-5.418-8.084-9.202a4818.233 4818.233 0 00-8.256-8.772c-1.95-2.064-4.873-5.045-8.772-8.944-3.784-3.784-6.593-6.622-8.428-8.514-1.835-1.892-4.386-4.615-7.654-8.17-3.268-3.555-5.733-6.364-7.396-8.428-1.663-2.064-3.698-4.701-6.106-7.912-2.408-3.21-4.157-5.934-5.246-8.17-1.09-2.236-2.236-4.845-3.44-7.826-1.204-2.981-1.863-5.676-1.978-8.084-.115-2.408.029-4.96.43-7.654.401-2.695 1.233-5.303 2.494-7.826 2.064-4.128 5.131-7.367 9.202-9.718 4.07-2.35 8.6-3.784 13.588-4.3 4.988-.516 9.603-.63 13.846-.344 4.243.287 8.543.831 12.9 1.634 12.957 2.408 25.972 6.765 39.044 13.072 13.072 6.307 23.88 13.273 32.422 20.898 8.543 7.625 13.1 14.591 13.674 20.898.573 6.88-4.816 12.499-16.168 16.856-15.939 4.243-32.107 5.16-48.504 2.752-1.147-.115-2.207.2-3.182.946-.975.745-1.548 1.72-1.72 2.924-.172 1.204.115 2.293.86 3.268.745.975 1.691 1.577 2.838 1.806 17.888 2.637 35.547 1.548 52.976-3.268 15.595-5.963 22.876-14.677 21.844-26.144-.688-8.256-5.877-16.885-15.566-25.886-9.69-9.001-21.471-16.77-35.346-23.306-13.875-6.536-27.692-11.123-41.452-13.76-14.907-2.752-27.463-2.609-37.668.43-10.205 3.039-17.43 8.8-21.672 17.286a38.77 38.77 0 00-3.182 9.632c-.63 3.325-.889 6.421-.774 9.288.115 2.867.774 6.049 1.978 9.546 1.204 3.497 2.408 6.536 3.612 9.116 1.204 2.58 3.096 5.705 5.676 9.374 2.58 3.67 4.787 6.65 6.622 8.944 1.835 2.293 4.5 5.36 7.998 9.202 3.497 3.841 6.25 6.765 8.256 8.772 2.007 2.007 4.902 5.017 8.686 9.03 4.128 4.013 7.224 7.11 9.288 9.288 2.064 2.179 4.902 5.217 8.514 9.116 3.612 3.899 6.364 7.11 8.256 9.632a500.585 500.585 0 016.708 9.202c2.58 3.612 4.443 6.851 5.59 9.718a124.036 124.036 0 013.268 9.288c1.032 3.325 1.49 6.565 1.376 9.718-.115 3.153-.688 6.278-1.72 9.374-1.605 5.045-5.418 9.202-11.438 12.47-6.02 3.268-12.757 5.475-20.21 6.622-7.453 1.147-15.136 1.433-23.048.86-11.696-.688-21.672-2.924-29.928-6.708-8.256-3.784-12.843-8.199-13.76-13.244-.23-1.261-.2-2.666.086-4.214.287-1.548 1.319-3.67 3.096-6.364 1.777-2.695 4.243-5.447 7.396-8.256 3.153-2.81 7.912-6.163 14.276-10.062 6.364-3.899 13.903-7.855 22.618-11.868 1.605-.688 2.494-1.92 2.666-3.698.172-1.777-.459-3.153-1.892-4.128-1.433-.975-2.953-1.06-4.558-.258-18.92 8.6-32.795 17.143-41.624 25.628-8.83 8.485-12.499 16.799-11.008 24.94.803 4.243 2.924 8.084 6.364 11.524 3.44 3.44 7.683 6.22 12.728 8.342 5.045 2.121 10.349 3.813 15.91 5.074a104.86 104.86 0 0016.942 2.408c2.523.115 5.16.172 7.912.172zm93.052-1.032c2.179.803 3.899.287 5.16-1.548 4.128-6.077 8.084-11.151 11.868-15.222 3.784-4.07 7.08-6.995 9.89-8.772 2.81-1.777 5.131-3.01 6.966-3.698 1.835-.688 3.497-.975 4.988-.86 3.899.344 6.823 2.293 8.772 5.848 2.523 4.587 5.963 8.4 10.32 11.438 4.357 3.039 9.173 5.017 14.448 5.934 5.619.803 11.84.344 18.662-1.376 6.823-1.72 12.843-3.87 18.06-6.45 5.217-2.58 10.578-5.733 16.082-9.46 5.504-3.727 9.23-6.364 11.18-7.912 1.95-1.548 3.612-2.953 4.988-4.214.917-.803 1.405-1.835 1.462-3.096.057-1.261-.315-2.35-1.118-3.268-.803-.917-1.835-1.376-3.096-1.376-1.261-.115-2.35.23-3.268 1.032a337 337 0 00-4.214 3.44c-1.663 1.376-5.017 3.784-10.062 7.224-5.045 3.44-9.919 6.393-14.62 8.858-4.701 2.465-10.12 4.53-16.254 6.192-6.135 1.663-11.61 2.15-16.426 1.462a24.137 24.137 0 01-10.664-4.3 26.497 26.497 0 01-7.74-8.6c-1.605-2.981-3.813-5.39-6.622-7.224-2.81-1.835-5.877-2.867-9.202-3.096-8.485-.688-17.716 4.185-27.692 14.62-.573.573-1.233.688-1.978.344-.745-.344-1.06-.917-.946-1.72.23-1.261 1.147-6.135 2.752-14.62l1.032-1.548.344-.516c2.523-3.555 5.103-7.224 7.74-11.008 2.637-3.784 5.848-8.657 9.632-14.62 3.784-5.963 7.224-11.696 10.32-17.2s6.077-11.41 8.944-17.716c2.867-6.307 5.017-12.04 6.45-17.2 1.433-5.16 2.064-10.062 1.892-14.706-.172-4.644-1.405-8.342-3.698-11.094-1.261-1.605-2.81-2.723-4.644-3.354-1.835-.63-3.727-.66-5.676-.086a18.358 18.358 0 00-2.838 1.204c-.86.459-2.35 1.95-4.472 4.472-2.121 2.523-4.185 5.762-6.192 9.718-2.007 3.956-4.5 9.947-7.482 17.974-2.981 8.027-5.963 17.487-8.944 28.38-4.013 13.875-7.51 28.15-10.492 42.828l-1.204 1.72c-1.261 1.72-1.319 3.44-.172 5.16-2.752 13.53-4.472 24.653-5.16 33.368-.23 2.293.745 3.841 2.924 4.644zm20.64-67.424c-1.72 2.293-2.867 3.268-3.44 2.924-1.376-.803-.086-7.568 3.87-20.296a349.822 349.822 0 0114.104-37.582c5.447-12.327 9.26-18.49 11.438-18.49.115 0 .344.172.688.516 1.147 1.49 1.548 3.927 1.204 7.31-.344 3.383-1.261 7.482-2.752 12.298-1.49 4.816-3.297 9.833-5.418 15.05a246.713 246.713 0 01-6.88 15.394c-2.465 5.045-4.787 9.546-6.966 13.502-2.179 3.956-4.128 7.08-5.848 9.374zm160.733 66.224l.947-.004c9.173 0 18.805-1.319 28.896-3.956 10.09-2.637 18.72-5.561 25.886-8.772 7.167-3.21 14.362-6.966 21.586-11.266 7.224-4.3 12.097-7.367 14.62-9.202 2.523-1.835 4.644-3.44 6.364-4.816 1.032-.803 1.605-1.835 1.72-3.096.115-1.261-.23-2.38-1.032-3.354-.803-.975-1.835-1.52-3.096-1.634-1.147-.115-2.236.23-3.268 1.032-.803.688-2.15 1.72-4.042 3.096-1.892 1.376-5.447 3.698-10.664 6.966a246.846 246.846 0 01-16.168 9.288c-5.561 2.924-12.24 5.82-20.038 8.686-7.797 2.867-15.423 4.988-22.876 6.364-7.453 1.376-15.48 1.806-24.08 1.29-8.6-.516-16.627-2.322-24.08-5.418-8.37-3.325-12.155-7.912-11.352-13.76-.115-.573.057-1.032.516-1.376a1.862 1.862 0 011.548-.344c11.581.688 22.245-2.007 31.992-8.084 6.765-4.472 9.861-9.46 9.288-14.964-.23-3.21-1.462-5.905-3.698-8.084-2.236-2.179-4.902-3.268-7.998-3.268-4.587-.23-9.775 1.147-15.566 4.128-5.79 2.981-11.037 7.11-15.738 12.384-4.701 5.275-7.683 10.607-8.944 15.996a23.942 23.942 0 00-.602 4.472c-.057 1.49.172 3.24.688 5.246a19.258 19.258 0 002.494 5.676c1.147 1.777 2.895 3.612 5.246 5.504 2.35 1.892 5.246 3.526 8.686 4.902 10.779 4.357 22.016 6.479 33.712 6.364l-.947.004zM302.67 191.16c-2.752.23-3.383-.688-1.892-2.752 3.325-4.472 7.425-8.141 12.298-11.008 4.873-2.867 9.145-4.185 12.814-3.956 1.032.115 1.777.373 2.236.774.459.401.745 1.233.86 2.494.23 1.95-1.433 4.128-4.988 6.536-.803.459-1.777 1.032-2.924 1.72-7.453 3.784-13.588 5.848-18.404 6.192zm168.904 39.216c6.536 0 13.56-1.347 21.07-4.042s14.047-5.705 19.608-9.03c5.561-3.325 11.237-7.224 17.028-11.696 5.79-4.472 9.69-7.625 11.696-9.46 2.007-1.835 3.755-3.44 5.246-4.816.917-.917 1.376-2.007 1.376-3.268 0-1.261-.459-2.322-1.376-3.182-.917-.86-2.007-1.29-3.268-1.29-1.147 0-2.179.401-3.096 1.204a64.759 64.759 0 01-1.806 1.72c-.745.688-2.265 2.035-4.558 4.042a203.59 203.59 0 01-6.88 5.762c-2.293 1.835-5.246 4.042-8.858 6.622s-7.052 4.759-10.32 6.536c-3.268 1.777-6.995 3.698-11.18 5.762-4.185 2.064-8.084 3.469-11.696 4.214-3.612.745-7.51 1.376-11.696 1.892-4.185.516-7.883.086-11.094-1.29-10.09-3.096-17.257-11.868-21.5-26.316-1.147-3.899-.803-7.74 1.032-11.524a623.668 623.668 0 007.138-15.136c2.35-5.16 5.131-11.467 8.342-18.92 3.21-7.453 5.877-14.563 7.998-21.328a290.442 290.442 0 005.504-19.952c1.548-6.536 2.179-12.327 1.892-17.372-.287-5.045-1.634-8.83-4.042-11.352-1.605-2.064-3.727-3.44-6.364-4.128-2.637-.688-5.16-.516-7.568.516-5.619 2.408-10.664 8.944-15.136 19.608-4.472 10.664-7.74 22.876-9.804 36.636-2.064 13.76-2.752 26.832-2.064 39.216a140.875 140.875 0 002.064 17.028c0 .573.115 1.147.344 1.72 2.293 10.779 5.934 19.58 10.922 26.402 4.988 6.823 11.209 11.323 18.662 13.502a44.857 44.857 0 0012.384 1.72zm-31.82-61.92c-.459.688-1.032.889-1.72.602-.688-.287-1.09-.831-1.204-1.634-1.72-8.944-1.405-20.067.946-33.368 2.35-13.301 5.533-24.854 9.546-34.658 4.013-9.804 7.453-15.337 10.32-16.598a3.247 3.247 0 011.032-.172c.917 0 1.892.573 2.924 1.72 2.064 2.179 1.863 9.23-.602 21.156-2.465 11.925-5.848 24.166-10.148 36.722-4.3 12.556-7.998 21.3-11.094 26.23zm145.168 61.92c6.536 0 13.56-1.347 21.07-4.042s14.047-5.705 19.608-9.03c5.561-3.325 11.237-7.224 17.028-11.696 5.79-4.472 9.69-7.625 11.696-9.46 2.007-1.835 3.755-3.44 5.246-4.816.917-.917 1.376-2.007 1.376-3.268 0-1.261-.459-2.322-1.376-3.182-.917-.86-2.007-1.29-3.268-1.29-1.147 0-2.179.401-3.096 1.204a64.759 64.759 0 01-1.806 1.72c-.745.688-2.265 2.035-4.558 4.042a203.59 203.59 0 01-6.88 5.762c-2.293 1.835-5.246 4.042-8.858 6.622s-7.052 4.759-10.32 6.536c-3.268 1.777-6.995 3.698-11.18 5.762-4.185 2.064-8.084 3.469-11.696 4.214-3.612.745-7.51 1.376-11.696 1.892-4.185.516-7.883.086-11.094-1.29-10.09-3.096-17.257-11.868-21.5-26.316-1.147-3.899-.803-7.74 1.032-11.524a623.668 623.668 0 007.138-15.136c2.35-5.16 5.131-11.467 8.342-18.92 3.21-7.453 5.877-14.563 7.998-21.328a290.442 290.442 0 005.504-19.952c1.548-6.536 2.179-12.327 1.892-17.372-.287-5.045-1.634-8.83-4.042-11.352-1.605-2.064-3.727-3.44-6.364-4.128-2.637-.688-5.16-.516-7.568.516-5.619 2.408-10.664 8.944-15.136 19.608-4.472 10.664-7.74 22.876-9.804 36.636-2.064 13.76-2.752 26.832-2.064 39.216a140.875 140.875 0 002.064 17.028c0 .573.115 1.147.344 1.72 2.293 10.779 5.934 19.58 10.922 26.402 4.988 6.823 11.209 11.323 18.662 13.502a44.857 44.857 0 0012.384 1.72zm-31.82-61.92c-.459.688-1.032.889-1.72.602-.688-.287-1.09-.831-1.204-1.634-1.72-8.944-1.405-20.067.946-33.368 2.35-13.301 5.533-24.854 9.546-34.658 4.013-9.804 7.453-15.337 10.32-16.598a3.247 3.247 0 011.032-.172c.917 0 1.892.573 2.924 1.72 2.064 2.179 1.863 9.23-.602 21.156-2.465 11.925-5.848 24.166-10.148 36.722-4.3 12.556-7.998 21.3-11.094 26.23zm100.276.516c.803 0 1.548-.23 2.236-.688 4.013-2.064 7.625-4.759 10.836-8.084.917-.917 1.347-1.978 1.29-3.182-.057-1.204-.545-2.236-1.462-3.096-.917-.86-1.978-1.29-3.182-1.29s-2.265.459-3.182 1.376a31.03 31.03 0 01-8.6 6.364c-2.064 1.147-2.81 2.867-2.236 5.16.573 2.293 2.007 3.44 4.3 3.44zm32.551 60.375l.645-.003c6.88 0 14.219-1.376 22.016-4.128 7.797-2.752 14.563-5.877 20.296-9.374 5.733-3.497 11.495-7.51 17.286-12.04 5.79-4.53 9.775-7.797 11.954-9.804 2.179-2.007 3.956-3.698 5.332-5.074.803-.917 1.204-2.007 1.204-3.268 0-1.261-.459-2.322-1.376-3.182-.917-.86-2.007-1.29-3.268-1.29-1.147 0-2.179.459-3.096 1.376a352.03 352.03 0 01-3.44 3.354c-1.72 1.663-4.673 4.214-8.858 7.654a184.886 184.886 0 01-13.072 9.804c-4.53 3.096-9.804 6.106-15.824 9.03-6.02 2.924-11.868 5.074-17.544 6.45-5.676 1.376-11.61 1.634-17.802.774-6.192-.86-11.81-3.125-16.856-6.794-2.064-1.49-3.469-3.583-4.214-6.278-.745-2.695-1.003-5.246-.774-7.654.23-2.408.774-4.988 1.634-7.74.86-2.752 1.548-4.673 2.064-5.762a48.02 48.02 0 001.118-2.494c.573-1.032.66-2.121.258-3.268-.401-1.147-1.147-2.007-2.236-2.58-1.09-.573-2.207-.688-3.354-.344-1.147.344-2.064 1.032-2.752 2.064-.459.917-1.003 2.121-1.634 3.612-.63 1.49-1.462 4.07-2.494 7.74-1.032 3.67-1.605 7.11-1.72 10.32-.115 3.21.516 6.708 1.892 10.492 1.376 3.784 3.67 6.823 6.88 9.116 8.37 6.307 17.83 9.403 28.38 9.288l-.645.003zm65.059-3.099c2.121 1.032 3.927.688 5.418-1.032 16.741-19.608 29.699-29.527 38.872-29.756.803-.115 1.577 0 2.322.344.745.344 1.433.86 2.064 1.548.63.688 1.147 1.29 1.548 1.806s.86 1.175 1.376 1.978c.516.803.774 1.261.774 1.376 4.93 8.715 11.868 15.308 20.812 19.78 5.16 2.064 10.635 3.153 16.426 3.268 5.79.115 11.151-.545 16.082-1.978 4.93-1.433 9.947-3.44 15.05-6.02 5.103-2.58 9.431-5.131 12.986-7.654a170.803 170.803 0 0010.492-8.084c3.44-2.867 5.79-4.93 7.052-6.192 1.261-1.261 2.236-2.293 2.924-3.096.917-.917 1.347-2.007 1.29-3.268-.057-1.261-.545-2.293-1.462-3.096C904.097 185.369 904 185 902 185c-2 0-6.05 5.28-8 7-1.95 1.72-11.317 8.276-14.356 10.34a131.666 131.666 0 01-9.116 5.676c-3.039 1.72-6.393 3.297-10.062 4.73-3.67 1.433-7.253 2.465-10.75 3.096-3.497.63-7.195.831-11.094.602a33.836 33.836 0 01-11.18-2.58c-7.11-3.784-12.613-9.23-16.512-16.34a41.752 41.752 0 00-5.16-6.708c-2.523-2.752-5.619-4.243-9.288-4.472-8.715-.573-19.436 5.16-32.164 17.2-.459.459-.975.545-1.548.258-.573-.287-.803-.717-.688-1.29l3.956-17.028c.23-1.147.029-2.265-.602-3.354-.63-1.09-1.548-1.777-2.752-2.064-1.204-.287-2.35-.086-3.44.602-1.09.688-1.749 1.605-1.978 2.752l-8.6 37.84c-.573 2.293.2 3.956 2.322 4.988z" fill="url(#prefix__a)" fill-rule="nonzero" transform="translate(0 4)"/><path d="M919 77c6-10.667 12.333-16 19-16 14 0 19 15 36 15 11.333 0 22.333-3.667 33-11 10.667-7.333 18.667-4.667 24 8" stroke="url(#prefix__b)" stroke-width="8" stroke-linecap="round" stroke-linejoin="round" transform="translate(0 4)"/><path d="M971 21c-4.667-8.667-3.333-15 4-19 11-6 19.526 2.933 21.263 8.966 1.737 6.034 0 11-9 18-6 4.667-10 10.667-12 18-1.333 6-.667 10.667 2 14" stroke="url(#prefix__c)" stroke-width="8" stroke-linecap="round" stroke-linejoin="round" transform="translate(0 4)"/><path d="M941 116l18 25c10 13.333 20 13.333 30 0s23-28.667 39-46c-10.667 25.333-10 44 2 56s20.667 20.333 26 25l37 27c-20-7.333-36-14-48-20s-20.667-7.333-26-4c-7.333 6-12.333 10.667-15 14s-9 10.667-19 22c-7.333 8-17.333 9.333-30 4-10.243-4.313-17.886-10.234-25-13-6.082-2.365-11.93-2.226-17 1-7.333 4.667-13.667 7.333-19 8-6.667.667-8-2.333-4-9s13.333-18 28-34c18-18 23.333-35 16-51-7.333-16-11.333-25.667-12-29a1743.63 1743.63 0 019 11c2.302 2.844 5.636 7.177 10 13z" stroke="url(#prefix__d)" stroke-width="8" stroke-linejoin="round" transform="translate(0 4)"/><text font-family="Gibson-Regular, Gibson" font-size="22" letter-spacing="24" fill="#000000" transform="translate(0 4)"><tspan x="164.05" y="307">ONLINE CLOTHING STORE</tspan></text></g></svg>