<?xml version="1.0" ?><svg height="72" viewBox="0 0 72 72" width="72" xmlns="http://www.w3.org/2000/svg"><g fill="none" fill-rule="evenodd"><path d="M36,72 L36,72 C55.882251,72 72,55.882251 72,36 L72,36 C72,16.117749 55.882251,-3.65231026e-15 36,0 L36,0 C16.117749,3.65231026e-15 -2.4348735e-15,16.117749 0,36 L0,36 C2.4348735e-15,55.882251 16.117749,72 36,72 Z" fill="#FAAC18"/><path d="M48.9233081,50.3367176 C46.9981584,51.9982913 43.3800845,52.6938068 40.5608664,51.5663518 C39.3184598,51.068228 38.1399151,49.9930238 37.5268397,49.2162293 C36.5758761,48.0156233 36.0696245,47.3955811 35.3613366,45.9058543 C34.2025311,43.4640027 33.4710207,39.5986086 34.711105,36.9419484 C35.6063345,35.0237654 38.2722837,32.7305382 40.9986116,32.2939542 C40.6816237,33.4156036 40.4215311,33.6280899 40.3518634,35.0481491 C40.1602773,38.9495382 41.7185107,43.558054 44.1162394,46.5247353 C44.4007157,46.8777181 44.6747419,47.1378107 44.9418012,47.458282 C45.5026259,48.1247693 45.6826007,48.2002426 46.2190417,48.6913996 C46.3932109,48.8504741 46.4802954,48.9758759 46.6904595,49.1454005 C47.7366356,49.9907015 48.4321511,50.0266965 48.9233081,50.3367176 M43.5287088,36.1349646 C43.5287088,39.6694374 45.2181496,43.0181297 47.4695762,45.4866872 C50.8832917,49.2266795 53.6699982,46.9322911 53.6699982,41.9824037 C53.6699982,39.4163115 52.8188916,37.4540057 51.4301828,35.5880735 C50.9796653,34.9819648 50.5384368,34.6545268 50.0310239,34.201687 C49.2971912,33.5444887 47.5009267,32.2707316 46.149374,32.31021 C43.8712415,32.3763943 43.5287088,34.3340556 43.5287088,36.1349646 M38.5846271,30.3177148 C39.3916108,30.1087119 40.8267647,29.1670373 41.4247454,28.7176809 C43.1141862,27.4474072 44.6248134,25.6372091 44.7130591,23.3254038 C44.8558778,19.6492735 42.0041481,19.3996311 40.1451827,20.7558282 C39.3556159,21.3329087 38.7239624,22.1213144 38.2525445,23.1291732 C37.0182658,25.7649331 37.8937561,28.0953164 38.5846271,30.3177148 M31.2695225,40.5263496 C30.6227744,41.3263666 27.2647931,47.5639446 27.2705987,48.7622284 C27.2740821,49.6899694 28.2413015,49.8339493 29.0262238,50.1033309 C29.8076628,50.3703903 30.5089839,50.6153882 31.32874,50.8673529 C32.6071416,51.258653 34.9711976,51.8995955 36.3215892,52.0017747 C35.6446517,51.1286067 35.3415974,51.0008826 34.4080507,49.7306089 C33.7949753,48.8934358 33.3723248,48.1642476 32.8881345,47.1645167 C31.5783825,44.4590891 31.6480502,43.2364217 31.2695225,40.5263496 M36.3599064,31.2141054 C36.1543868,30.8228054 36.0057624,30.428022 35.7723758,29.9925991 C34.3221273,27.3080718 32.210036,24.9533049 29.3048945,23.5587905 C22.2684606,20.1764255 14.5539281,24.1660603 19.6454731,30.337454 C20.1401135,30.937757 20.9180691,31.4892927 21.7262139,31.9711607 C24.4246747,33.5793226 27.9034133,33.6698905 30.9211842,33.0614596 C32.055606,32.8338786 35.8095318,31.7633188 36.3599064,31.2141054" fill="#FFF"/></g></svg>